<svg width="347" height="347" viewBox="0 0 347 347" fill="none" xmlns="http://www.w3.org/2000/svg">
<path fill-rule="evenodd" clip-rule="evenodd" d="M240.07 129.914C241.501 123.419 242.128 118.975 243.098 110.373C243.057 110.36 242.934 110.363 242.665 110.373H241.8C241.225 110.273 241.111 110.368 241.08 110.663C238.996 113.305 237.541 114.292 234.159 114.716H229.114C225.562 114.13 223.595 113.721 220.175 112.689H217.58C216.95 112.577 216.632 112.556 216.571 113.123V114.571C216.457 114.968 216.46 115.125 216.715 115.15L219.454 116.018L227.239 118.624L233.15 119.203C235.845 120.21 236.008 120.499 233.15 120.361C230.6 120.197 229.176 120.063 226.663 119.637C223.531 118.267 221.617 117.63 217.724 116.887L217.681 116.882C217.053 116.812 216.689 116.772 216.571 117.321L216.282 119.492C216.233 120.241 216.317 120.476 216.715 120.505L219.022 120.795L224.5 122.676L230.555 124.992C235.042 127.939 235.185 128.262 230.123 125.861L225.509 123.979L216.859 121.518C216.233 121.479 215.983 121.531 216.571 122.387L217.58 123.4C217.872 124.007 217.85 124.176 217.436 124.124H217.003C216.398 124.369 216.233 124.519 216.715 124.848L220.608 126.005L225.077 128.321L231.276 131.94C233.927 134.235 234.837 135.126 230.555 132.664L227.816 130.927L223.923 128.611L219.022 126.295C218.004 125.945 217.689 125.876 217.58 126.005C217.012 126.77 216.907 127.237 217.292 128.177L218.877 129.19L223.923 132.664L228.681 136.716C230.693 138.642 230.346 138.601 228.104 137.295L225.221 134.979C222.396 132.375 220.915 131.131 218.877 130.203C218.075 130.083 217.707 130.064 218.301 130.782C222.57 134.478 223.993 137.029 224.356 142.651L224.788 152.059C224.727 158.002 224.77 161.358 223.635 166.967C223.04 171.171 222.604 173.52 221.473 177.678L219.454 184.481L217.436 191.139C217.27 191.536 217.17 191.715 216.859 191.139C216.478 190.466 216.24 189.995 216.282 190.995V192.587C216.141 192.779 216.143 192.906 216.282 193.166L217.003 194.468C217.022 195.263 216.926 195.387 216.427 194.613L215.994 193.455C215.506 192.902 215.382 192.98 215.417 193.889V195.192C215.37 195.945 215.279 196.361 214.841 197.074V199.245C214.55 199.762 214.418 199.819 214.264 199.245V198.666C213.554 197.64 213.229 197.327 213.255 198.955L212.822 201.85C212.723 202.686 212.638 202.992 212.246 202.14L211.957 201.126C211.283 200.561 211.004 200.425 211.092 201.271V201.85V201.995L210.804 202.863C210.589 203.17 210.472 203.526 210.371 204.456V206.627C209.756 207.338 209.49 207.569 209.651 206.627L209.939 204.166C209.849 203.685 209.792 203.436 209.362 204.021C208.598 204.989 208.315 205.556 208.065 206.627L207.921 210.824L207.92 210.874C207.912 211.683 207.907 212.151 207.344 210.969L206.767 208.798C206.414 208.071 206.245 207.811 206.191 208.653L206.335 213.43C206.104 213.944 205.956 214.092 205.614 213.719L205.037 212.561C204.4 211.973 204.151 211.813 204.46 212.706L204.749 215.89C204.857 216.51 204.881 216.794 204.605 216.759H203.451C201.588 215.526 200.601 214.76 199.27 212.851C198.252 210.202 197.421 208.811 195.522 206.482C194.624 205.909 194.419 205.891 194.945 206.771L195.378 207.785C195.256 208.398 195.12 208.474 194.657 207.785C192.782 206.473 191.717 205.822 189.755 205.035C188.862 204.775 188.619 204.796 189.178 205.469C189.195 206.148 189.004 206.112 188.458 205.614L185.43 203.298C184.352 202.864 184.096 202.905 184.565 203.732L185.286 204.745C185.597 205.562 185.539 205.742 184.709 205.179L181.97 203.008C181.501 202.827 181.3 202.772 181.393 203.008L181.537 203.877C181.461 204.218 181.405 204.378 181.105 204.166L176.347 201.416C175.726 201.004 175.776 200.781 176.636 200.403H177.933C180.555 199.447 182.194 199.432 183.7 195.047C184.094 192.731 183.778 191.34 182.114 188.679C181.187 188.101 180.764 187.904 181.105 188.968C182.461 191.626 182.994 193.034 182.547 195.047C181.407 197.65 180.163 198.523 176.636 198.811C175.731 198.633 175.242 198.553 175.05 199.1C175.037 200.964 174.661 201.77 173.031 202.574C170.703 203.972 169.472 204.257 167.409 203.877C165.788 203.16 164.901 202.665 163.372 201.561C163.226 201.261 163.197 201.099 163.372 200.837C164.037 200.123 164.071 199.739 163.372 199.1C159.214 198.238 157.605 197.662 155.875 196.495C154.819 194.934 154.653 193.867 155.875 191.284C156.361 190.366 156.511 189.825 156.596 188.823C156.523 188.152 156.449 187.85 155.587 188.968L154.434 190.705C153.092 194.235 153.134 195.858 155.01 197.942C157.027 199.437 158.385 200.065 161.498 200.548C162.167 200.864 162.48 201.028 162.075 201.126L160.2 201.705L156.308 203.877C155.138 204.215 154.658 204.315 155.587 203.587C155.702 203.034 155.483 203.027 154.578 203.587C152.827 204.453 151.873 205.171 150.253 206.916C149.74 207.456 149.605 207.494 149.82 206.771L150.829 204.745C151.13 203.842 150.983 203.702 150.108 204.166L144.486 207.206C143.831 207.399 143.538 207.458 144.197 206.771L145.351 205.758C145.579 205.277 145.523 205.157 144.774 205.469C141.46 206.672 140.105 207.846 138.286 210.535C136.162 213.496 134.65 214.806 130.934 216.035C130.127 216.271 129.897 216.238 130.069 215.745C130.734 214.577 131.02 213.938 131.222 212.851C131.206 211.684 131.075 211.44 130.501 212.127L129.492 213.574C128.919 213.825 128.803 213.719 128.915 213.14C129.498 211.429 129.765 210.529 129.78 209.377C129.619 208.415 129.525 207.911 129.204 208.508L128.627 209.666C128.283 210.485 128.147 210.659 128.195 209.522L127.762 204.745C126.91 203.732 126.552 203.465 126.609 204.745V208.798C126.226 210.021 126.057 210.351 126.032 208.798V205.903L125.455 202.14C124.99 201.045 124.742 201.018 124.446 201.995L124.302 204.89C124.048 205.398 123.917 205.412 123.725 204.89V203.008L123.724 202.977C123.706 202.32 123.696 201.943 123.293 202.284C122.711 202.512 122.483 202.529 122.716 201.85V200.692C122.056 200.03 121.787 199.511 121.851 197.797C121.456 197.3 121.275 197.115 121.274 197.508V198.376C120.909 199.274 120.771 199.32 120.698 198.232L120.842 196.061C120.495 194.947 120.307 194.95 119.977 195.771L119.833 196.929C119.278 197.32 119.011 197.471 119.256 196.64L119.833 194.903C119.866 194.209 119.801 193.843 119.256 193.31L119.4 191.718C119.169 191.15 119.085 190.659 118.535 191.284L118.247 192.153C117.883 192.449 117.706 192.522 117.526 192.153L115.796 185.35C113.416 176.988 112.364 172.171 111.615 163.059C111.695 156.292 111.697 152.51 112.48 145.546C112.998 141.016 113.36 138.522 115.219 134.835C116.504 132.586 117.43 131.362 119.977 129.335C120.166 128.741 120.181 128.502 119.4 128.9L117.094 130.203L112.768 133.243L108.876 137.44C107.825 138.204 107.514 138.3 108.299 136.861L110.173 134.256C113.234 131.268 115.033 129.753 118.824 128.177C119.592 127.882 119.846 127.662 119.977 127.163V124.848C119.971 124.53 120.019 124.379 120.409 124.269L120.842 124.124C121.184 123.519 121.246 123.266 120.698 123.255L119.4 123.4C114.745 125.079 112.202 126.538 107.867 130.637L104.407 134.4C103.421 135.288 103.078 135.479 103.83 133.822L107.434 129.769C110.263 127.223 111.862 125.859 114.787 123.834L119.977 121.953C120.804 121.68 121.095 121.469 121.13 120.939V119.782C121.099 119.27 120.906 119.176 120.121 119.492L114.931 121.663C110.567 123.891 107.909 126.305 103.109 130.927C101.807 132.481 101.655 132.471 102.677 130.492L102.684 130.482C104.733 127.865 105.884 126.394 108.587 124.124L115.363 119.926L120.554 117.755C121.055 117.406 121.207 117.074 121.274 116.742C121.269 116.248 121.215 116.069 120.986 116.018L120.121 116.163L113.922 118.768C108.628 120.766 105.872 122.766 101.235 127.453C100.521 127.98 100.27 128.063 100.658 127.019C102.472 124.428 103.578 123.104 105.992 121.374C111.202 118.315 114.214 116.804 120.121 115.295C120.716 115.119 120.884 114.962 120.842 114.571V113.268C120.869 112.824 120.818 112.622 120.121 112.689L117.238 112.834C112.084 113.829 108.693 115.54 101.811 120.505L101.729 120.549C100.796 121.044 100.249 121.335 101.379 119.926L105.992 115.439C108.414 113.464 109.93 112.554 113.345 111.821L118.679 111.531C120.193 111.541 120.888 111.506 120.842 111.097C120.524 110.081 120.046 109.657 118.247 109.36L106.137 110.229C103.733 110.202 102.344 110.715 99.7931 112.544C99.2228 112.789 99.0091 112.795 99.0723 112.255C99.8295 110.397 100.448 109.489 102.677 108.636L119.833 108.492C120.594 108.578 120.774 108.536 120.409 108.202C119.727 107.526 118.988 107.204 116.949 106.755C116.239 106.325 116.156 106.128 116.805 105.886C119.663 105.469 121.269 105.299 124.158 105.307C124.984 105.223 125.061 105.093 124.59 104.728C123.521 103.869 122.643 103.534 120.698 103.136C119.381 102.622 118.956 102.397 120.986 102.557L127.762 103.136C132.012 103.558 134.272 103.948 137.998 105.018C139.182 105.19 139.476 105.133 138.575 104.439L136.701 103.426C135.634 102.781 135.464 102.573 136.989 102.847L138.863 103.281L146.937 104.728C147.869 104.793 148.077 104.699 147.513 104.149L144.63 102.557C144.014 102.076 144.125 101.971 145.062 102.123L146.793 102.557C148.79 102.88 149.851 103.19 151.55 104.149L156.74 106.031C157.672 106.388 157.761 106.314 157.461 105.886L155.299 103.57C154.771 102.672 154.852 102.534 156.019 103.281L161.065 106.755C161.8 107.066 162.002 107.019 161.786 106.321L160.344 103.86C160.002 103.24 159.992 103.044 161.209 103.715L167.985 108.347C168.623 108.778 168.968 108.75 169.571 108.492L174.041 104.439C174.63 104.173 174.876 104.112 174.761 104.584L174.041 105.742C174.015 106.305 174.179 106.3 174.617 106.031L177.501 103.281C178.141 102.631 178.255 102.662 178.077 103.426L175.915 106.61C175.629 107.312 175.765 107.433 176.492 107.189L184.709 101.834C185.432 101.559 185.562 101.624 185.142 102.268L183.412 104.005C182.585 105.315 182.809 105.413 184.133 104.728L191.774 101.834C192.706 101.507 192.97 101.534 192.783 102.123L190.62 103.86C190.184 104.567 190.099 104.827 190.764 104.584C193.287 103.313 194.703 102.769 197.252 102.123C198.112 101.985 198.354 102.024 197.829 102.557L195.378 103.86C194.924 104.446 195.023 104.551 195.666 104.439L202.442 102.702L208.065 101.11C209.308 101.016 209.561 101.072 208.497 101.544L207.056 102.268L203.451 103.86C202.991 104.519 202.832 104.815 203.595 104.584L207.632 103.715C209.502 102.932 211.449 102.637 217.724 102.557C218.675 102.879 218.931 103.03 217.868 103.136C215.629 103.391 214.596 103.637 213.543 104.439C213.008 105.133 213.109 105.268 213.832 105.163L219.939 105.622C220.635 105.962 220.603 106.113 220.031 106.321L218.157 106.61C217.255 106.958 217.089 107.114 217.292 107.334C218.03 107.992 218.543 108.199 219.598 108.347H226.086L232.429 106.61C235.26 105.169 236.563 103.478 238.629 99.6624C240.767 95.883 241.849 93.6672 243.386 89.3858C243.457 87.9612 243.308 87.7704 242.521 89.0963L241.512 90.9779C238.9 94.1235 237.028 95.5112 232.862 97.2018L226.518 99.6624C225.263 99.7542 224.95 99.6915 226.086 99.0835C231.327 97.0499 234.152 95.7976 238.052 92.4253C240.414 89.5685 241.451 87.7179 242.665 83.8856L243.963 76.359C244.063 74.9988 244.054 74.4966 243.531 75.6353L242.233 77.9511L237.908 86.6357C235.61 90.0384 234.039 91.663 230.267 93.5833C229.529 93.8909 228.955 94.1859 229.979 93.1491C233.538 90.2845 235.236 88.378 237.475 84.175C237.858 83.169 237.945 82.7811 236.8 83.8856L235.169 85.333C232.279 88.0403 230.513 89.3836 226.807 91.1227L221.617 93.1491C220.824 93.1581 220.486 93.1175 221.328 92.4253C224.765 91.0214 226.622 90.1175 229.69 88.0831C233.877 84.8655 236.081 82.7858 239.35 77.8064C241.286 74.3009 242.049 71.8941 242.521 66.3718L242.377 57.9768C241.996 57.4602 241.811 57.3179 241.656 57.9768C240.323 61.7884 239.12 63.2696 235.601 64.6349C234.94 64.585 234.702 64.8151 234.736 65.3586L234.88 69.2666C234.457 73.917 233.444 76.5086 230.123 81.1355C229.82 81.8539 229.828 82.0232 230.411 81.5697L234.015 77.8064C236.303 74.3709 237.511 72.4012 239.061 68.5429C239.498 67.5346 239.647 67.6288 239.782 68.6877C238.732 72.3047 237.995 74.2384 236.178 77.3722C232.559 81.881 230.416 84.2816 225.509 87.3594C224.656 87.6406 224.239 87.7543 224.933 86.9251L227.383 83.8856C231.736 76.9986 232.852 72.9711 233.727 65.6481C233.934 60.8788 233.352 58.3784 231.132 54.2135C229.985 52.8211 229.89 52.9822 230.267 54.2135C231.377 57.2888 231.702 59.155 231.42 62.898C230.301 69.903 229.469 73.8675 224.5 81.5697C218.358 88.2703 214.556 91.0654 206.479 92.5701L200.856 92.8596C199.439 92.5814 198.888 92.4148 200.856 91.9911L206.191 91.2674C215.375 88.8231 219.206 85.9279 224.356 78.8196C228.532 71.4724 229.673 67.4505 229.69 60.4374C229.339 55.9259 228.455 53.5365 225.365 49.5817C224.698 49.1195 224.403 48.9523 224.788 49.7265L225.942 54.2135C227.234 59.7627 227.314 62.7195 226.086 67.6745C223.351 73.9553 221.327 77.0921 216.282 81.5697C210.973 85.8284 207.785 87.4166 201.865 89.3858C200.787 89.7163 200.483 89.7287 201.577 88.8068L207.776 84.175C211.999 80.2272 214.298 77.8584 217.868 72.451C220.179 69.3242 221.03 66.874 221.328 60.5821C221.035 55.5902 220.66 53.0159 219.31 49.1475C218.872 47.6501 218.887 47.3812 219.742 48.7133L221.617 53.2003C222.531 58.2532 222.752 61.1724 222.193 66.6613C221.484 70.999 220.271 73.3306 217.147 77.3722C216.667 78.1037 216.788 78.1438 217.436 77.8064L220.463 75.0563C222.945 72.2518 224.057 70.0667 224.933 64.2007C224.873 58.8809 224.501 55.9278 222.914 50.7397C221.159 45.7244 219.261 43.5307 214.841 40.3183L204.893 33.9496L198.838 29.1731C195.792 26.5513 194.217 24.9541 192.494 21.0676C192.005 19.7206 191.742 18.943 191.629 16.8701C191.629 16.8701 191.136 15.9418 190.908 16.4359C190.433 18.5803 190.336 19.8234 190.332 22.0808C190.739 26.296 191.065 28.479 192.35 31.0548C192.658 31.7516 192.577 31.9205 191.774 31.6338C188.197 29.8892 186.038 29.0265 181.682 27.8705C177.663 26.8755 174.807 26.4674 168.706 25.9888C165.837 25.611 164.227 25.2401 161.354 24.3967L155.731 22.3703C154.376 22.3587 154.275 22.537 155.443 23.2387L159.624 25.5546C162.83 27.1553 164.655 27.8329 167.985 28.4494C168.627 28.9259 168.696 29.0794 167.985 29.0284L153.136 28.8837C150.752 28.6319 149.4 28.41 146.937 27.7257C145.529 27.6333 145.071 27.6713 146.36 28.3047L149.243 29.6074L154.434 32.2127L158.47 34.5286C159.091 35.1074 159.01 35.2104 157.749 34.8181L154.578 33.6601C152.706 32.7691 151.309 32.482 147.946 32.5022C144.198 32.8017 142.039 33.2039 137.998 34.6733L131.799 36.555L124.735 38.4366C123.471 39.042 123.642 39.1174 124.735 39.0156L128.627 38.7261L136.989 37.7129L144.774 37.4234C145.597 37.84 145.693 37.9985 145.207 38.1471L140.737 38.5814C134.179 39.313 130.415 39.9988 123.581 41.621C117.967 42.7584 114.956 42.6895 109.741 41.7657L104.407 40.0288C103.588 39.7686 103.42 39.8838 103.686 40.6078L105.272 42.7789C107.36 45.0529 108.565 46.2309 111.038 47.4106C111.508 48.0702 111.716 48.1575 111.183 48.1344H109.885C106.561 48.1134 104.699 48.0194 101.379 47.5554C96.5052 46.9556 93.8289 46.1622 89.2687 43.0684C88.4558 42.212 88.2441 42.2072 88.4037 43.2131C89.9168 47.5532 90.8264 49.7351 92.7288 52.4766C97.0443 58.0244 99.7251 60.5509 105.272 63.3322C105.817 63.7733 105.955 63.9765 105.127 64.0559L101.667 64.4902L91.2871 64.7796L86.3853 63.7664C85.1671 63.7832 84.7966 63.8468 85.5203 64.2007C86.7104 64.6283 87.3202 64.9337 88.2595 65.6481C91.5052 68.3875 93.3779 69.7281 96.9097 71.4377L103.83 74.9115C104.371 75.7588 104.287 75.9933 103.109 75.78L98.2072 73.6089C97.4688 73.1479 97.0987 72.9472 97.1981 73.6089L97.4864 75.3458C97.4965 75.9829 97.3396 76.0172 96.9097 75.78L90.2779 71.7272C89.3354 71.0944 89.0413 71.0249 89.557 72.1615L90.2779 73.0299C93.3666 76.4935 95.5381 78.2638 100.514 80.9907L110.75 86.0567C111.247 86.9868 111.106 87.1326 110.173 86.7804C105.096 85.1709 102.355 83.9305 97.7747 80.7012C96.3921 79.7161 96.2437 79.7316 97.0539 80.7012C101.446 85.2323 103.908 87.7713 108.876 90.5437C112.872 93.3486 115.154 94.7918 119.544 96.3334C120.093 96.8257 120.081 96.9838 119.112 96.9123L116.373 96.3334C113.097 95.2693 110.792 94.9051 105.992 94.5965C101.445 93.8108 99.3623 92.411 96.0447 89.0963C95.589 88.5604 95.3515 88.3507 95.0355 88.5173C95.434 90.9741 95.7513 92.2927 96.6214 94.4517C98.1734 97.1971 99.3644 98.4668 102.244 100.097C105.161 101.663 106.869 102.35 110.029 103.281C110.745 103.938 110.659 104.071 109.885 104.005L105.704 103.136C103.431 102.366 102.135 101.774 99.7931 100.386C97.5206 98.7873 96.427 97.5857 94.8913 94.7412C94.3148 93.9298 94.0725 93.6946 94.0263 94.307C94.2263 96.4627 94.3707 97.6696 94.8913 99.8072C95.3568 102.118 96.0379 103.319 99.2164 105.018C101.838 106.292 103.664 106.753 107.867 106.9C108.587 107.044 108.422 107.389 107.867 107.478H104.551C102.546 107.451 101.392 107.359 99.2164 106.9C97.5539 106.43 96.6741 105.818 95.1797 104.149C94.7641 103.602 94.5352 103.303 94.4588 103.57L95.1797 108.347C95.7619 115.059 96.1236 118.744 96.9097 124.992C97.9412 133.05 98.4563 136.802 99.0723 139.901L99.5048 142.361C96.9588 143.562 96.2701 144.704 95.9005 147.283V157.27C96.4536 163.55 96.896 166.813 98.3514 171.31L102.677 180.284C103.955 183.062 104.713 184.42 106.281 185.784C108.659 187.613 109.63 187.812 110.894 187.087C111.339 186.938 111.484 187.097 111.615 187.666L112.913 193.889L115.94 210.535C116.926 215.584 117.453 218.528 118.824 221.825C118.846 221.879 118.866 221.931 118.885 221.982C119.059 222.453 119.069 222.761 118.824 223.272L112.624 231.957C108.663 236.81 106.282 239.439 101.523 243.825C99.5986 244.512 98.5487 245.036 96.7655 246.431C95.0355 247.733 94.0263 250.194 90.7104 252.799C87.3945 255.405 83.3577 257.142 83.3577 257.142L66.634 266.839L45.0085 279.721V282.761L51.4962 278.853L62.5973 272.34L73.5542 266.26L91.5754 255.405C92.5067 255.072 93.015 254.714 93.8821 253.523C96.5677 249.882 98.0545 247.919 100.226 246.431C100.981 246.135 101.018 246.308 100.802 246.865C98.7777 250.287 97.8716 252.27 96.9097 255.984L94.7472 263.945L91.7196 277.116L90.2779 286.235C90.5425 286.902 90.7011 286.912 90.9987 286.524L92.4404 280.735L93.8821 273.932L97.6306 261.629C99.4753 255.779 100.66 252.566 103.83 247.299C107.134 242.78 109.038 240.38 112.624 236.588L116.661 229.93C117.285 229.684 117.429 229.754 117.382 230.22C115.817 233.323 115.393 234.67 115.363 236.444V243.536C115.408 244.067 115.402 244.35 115.075 244.694L113.201 246.865C107.748 255.488 105.841 260.699 102.965 270.168C100.875 275.985 100.218 279.591 99.3606 286.235C98.842 292.875 98.7153 296.689 99.2164 303.893C99.8653 309.099 100.266 311.575 101.091 314.749C101.433 315.05 101.577 315.057 101.667 314.46L101.523 312.433L101.235 306.643V297.669C101.467 290.937 101.742 287.257 102.965 281.169C104.196 274.974 104.968 271.509 107.002 265.392C109.802 258.207 111.505 254.331 115.075 248.023C115.412 247.688 115.57 247.607 115.652 248.168L116.517 254.826L121.995 279.432L127.762 302.735L129.925 313.881C130.055 314.373 130.192 314.43 130.501 314.17L134.25 308.67L142.179 297.09C142.376 296.688 142.581 296.655 143.044 296.801C146.802 298.822 148.743 299.539 151.694 299.551C152.128 299.731 152.281 299.891 152.415 300.275L154.866 305.196C157.088 311.387 158.175 314 159.335 314.46C157.162 321.32 156.372 324.881 155.587 330.815C159.707 330.472 162.895 330.331 166.111 330.373C169.135 330.413 172.185 330.614 176.059 330.96C175.059 323.851 174.148 320.152 171.59 314.315C173.149 313.114 173.884 312.303 174.906 310.551C178.111 305.414 179.827 302.706 181.682 300.42C184.767 299.098 186.459 298.235 189.323 296.222C189.653 295.948 189.806 295.973 190.043 296.222L201.721 314.46C201.939 314.675 202.033 314.668 202.154 314.46L208.641 287.827C211.324 276.591 212.64 269.952 214.697 257.576C215.683 252.776 216.142 249.414 216.715 241.654C216.756 241.353 216.877 241.415 217.147 241.654L221.04 249.036C224.621 256.51 226.387 260.814 228.104 269.155C229.79 276.245 230.431 280.517 230.988 288.695V302.446L230.267 311.999C232.271 305.426 232.763 301.304 233.15 293.617C233.312 285.676 232.981 280.952 231.42 271.905C229.379 262.485 227.692 257.469 223.635 249.036C220.692 243.332 219.185 241.095 216.715 238.904C216.969 233.208 216.832 230.107 214.841 225.154V224.14L218.877 230.943L224.068 236.444C228.329 240.655 230.391 243.45 233.294 249.47L238.917 263.655L244.684 280.156L246.126 284.353V281.893L243.242 269.879L238.485 255.55C237.043 251.063 233.727 243.102 232.429 241.944C231.132 240.786 235.972 244.224 237.331 246.286C239.53 249.365 240.875 250.85 243.675 252.655L254.632 258.3L269.049 265.247L285.917 272.629L302.64 280.011V276.971C302.45 276.914 302.273 276.803 301.775 276.392L300.333 275.813L257.803 256.563C251.516 253.402 243.157 249.036 241.656 247.589C240.156 246.141 238.773 243.246 236.61 241.51C234.448 239.773 230.844 238.615 230.844 238.615L224.788 233.115C223.305 231.661 222.483 230.733 221.04 228.772L218.589 225.154L215.994 221.825L215.417 221.535C214.818 221.715 214.65 221.584 214.841 220.667C217.199 214.528 218.229 210.476 219.742 202.574L221.472 193.6L222.77 187.087H225.221C226.563 186.617 227.424 185.837 229.113 183.613L232.285 178.547L235.601 172.323L238.34 163.928L239.782 153.796C240.153 151.098 240.232 149.213 240.07 144.967C240.181 144.27 237.475 141.638 237.475 141.638L240.07 129.914ZM145.927 293.182C147.716 294.037 148.571 294.564 149.676 295.643C149.918 296.285 149.883 296.497 149.388 296.511C147.764 296.066 146.833 295.664 145.207 294.63C144.909 293.75 145.244 293.473 145.927 293.182ZM187.016 292.314C186.582 291.982 186.361 291.987 186.007 292.459L182.979 295.932C182.836 296.781 182.944 296.949 183.412 296.801L187.448 294.196C187.741 294.159 187.828 294.057 187.737 293.617L187.016 292.314ZM181.826 284.787C181.43 284.502 181.228 284.442 180.961 284.787C178.7 286.938 177.344 287.954 174.761 289.419C174.206 289.693 174.091 289.851 174.473 290.143L178.077 291.011C178.429 291.169 178.685 291.129 179.231 290.867L182.547 287.682C183.057 287.56 183.164 287.38 182.979 286.814L181.826 284.787ZM212.246 226.891C213.456 231.557 213.709 234.302 213.687 239.338C213.115 247.95 212.587 252.514 211.236 260.181L207.056 281.603L203.163 297.525L201.289 306.354C201.104 306.945 200.985 307.176 200.568 306.354C196.95 298.546 194.416 294.6 189.755 287.682L181.97 277.261L177.933 272.919C177.288 272.597 176.827 272.639 175.915 272.919C173.492 274.142 172.057 274.684 169.427 275.524L168.274 275.669L163.949 275.524C163.409 275.674 163.067 275.698 162.219 275.379L157.749 272.774C157.242 272.419 156.959 272.369 156.452 272.774L154.722 274.221C150.956 277.204 149.042 279.292 145.783 283.34C142.193 288.143 140.345 291.101 137.133 296.511L132.376 305.63C132.168 306.33 132.192 306.896 131.655 305.92L131.078 303.314L128.771 293.472L125.311 278.708L121.419 262.787C119.78 255.373 119.06 250.975 118.391 242.378C118.356 239.71 118.296 238.176 118.824 236.009L120.986 229.206C121.186 228.779 121.355 228.835 121.707 229.206C121.79 230.258 121.892 230.754 122.139 231.522L124.158 236.878C127.498 244.713 129.683 248.068 133.961 252.799C140.182 258.487 143.705 261.4 150.108 265.681L158.038 270.892L163.66 274.366C164.152 274.953 164.266 275.223 163.949 275.524L168.274 275.669C168.106 275.345 168.324 275.035 168.995 274.366C175.587 270.031 179.174 267.368 185.43 262.208C193.154 255.499 197.248 251.055 204.028 241.654C207.572 236.781 209.086 233.419 211.381 226.891C211.436 226.777 211.488 226.685 211.536 226.611C211.813 226.187 211.983 226.377 212.246 226.891ZM149.676 286.524L156.74 278.274L157.119 278.279C164.214 278.366 168.307 278.417 175.338 277.261L178.798 281.314C179.145 282.118 179.127 282.458 178.798 282.906L169.427 289.419C163.255 289.236 159.967 289.569 154.722 291.735C154.188 292.168 153.905 292.36 153.568 292.169C153.541 291.772 153.455 291.494 153.136 290.867L149.676 287.682C149.317 287.277 149.351 287.019 149.676 286.524ZM97.6306 93.0043C96.7884 92.6253 96.7126 92.7039 97.1981 93.2938L99.7931 96.1886C102.832 98.232 104.505 98.9383 107.434 99.5177C108.242 99.6423 108.286 99.5022 107.722 98.9387C103.336 97.6603 101.19 96.2144 97.6306 93.0043ZM216.138 95.0307C217.686 93.3221 217.331 93.3089 215.562 94.1622L208.209 96.4781C205.701 97.3596 205.319 97.6508 208.786 97.3466C211.567 96.7327 213.02 96.7279 216.138 95.0307ZM212.822 71.293C212.822 71.293 217.073 62.4483 211.813 71.0035C206.553 79.5588 203.915 81.9591 196.243 87.2146C193.513 89.669 194.119 89.6485 197.54 88.0831C206.267 81.8127 209.198 79.4017 212.822 71.293ZM219.31 61.5953C218.104 66.4256 217.785 66.7474 218.157 61.0164C217.979 57.9328 217.615 56.2226 216.571 53.2003C215.123 50.7288 214.693 50.4318 215.129 53.345L215.417 57.6873C214.968 60.3371 214.714 60.4183 214.264 57.6873L213.687 54.6477L212.101 50.1607C210.169 46.5842 208.965 44.6489 206.335 41.4762C203.065 38.1322 203.073 38.5731 206.046 43.0684L207.632 47.4106C209.864 55.523 209.916 59.8546 208.93 67.385C207.683 72.2213 207.441 72.2747 208.209 65.3586L208.065 59.1347C206.576 48.7063 204.186 43.0771 197.54 33.3706C193.633 27.6911 194.56 28.3099 198.982 32.7917C204.943 38.0663 208.11 41.1289 212.39 47.4106C213.308 48.5993 213.62 48.5708 213.687 46.8316L213.111 45.2395C212.351 42.2592 212.686 42.3457 214.408 45.0947L215.994 48.2791C219.012 53.4938 219.549 56.408 219.31 61.5953ZM203.019 52.6213C199.737 46.1299 199.582 46.587 201.577 52.9108C203.523 60.4228 203.336 64.5713 201 71.872C196.472 81.395 192.828 85.9434 184.853 93.0043C179.772 97.2489 180.583 97.0137 185.43 94.1622L190.908 89.241C197.244 82.7212 200.242 78.7469 203.451 70.4246C205.357 63.473 205.394 59.5756 203.019 52.6213ZM199.559 53.7793C198.261 49.1475 197.898 49.7661 198.261 55.0819C198.625 60.3977 198.375 63.3503 196.675 68.5429C195.691 71.9619 195.821 72.195 198.117 67.5297L198.982 64.7796C200.013 60.704 200.111 58.2888 199.559 53.7793ZM191.341 51.4634C188.982 46.6709 188.748 46.7083 190.332 51.8976C192.174 59.2105 192.383 63.611 191.629 71.872C191.155 76.7767 191.216 77.8534 193.071 70.8588C194.212 62.7621 193.932 58.4869 191.341 51.4634ZM186.007 35.6865C189.145 38.5096 188.873 38.7361 184.565 36.555L173.32 32.2127C169.56 30.5135 168.991 30.0426 173.896 31.0548C179.101 32.3917 181.693 33.4656 186.007 35.6865ZM180.961 38.4366C188.604 41.1011 189.2 41.1345 181.826 37.8576C176.221 35.3983 173.221 34.5297 167.985 33.3706C161.187 31.9789 162.479 32.5202 167.697 34.2391L180.961 38.4366ZM178.942 45.8185C183.964 47.5308 184.456 47.4006 179.375 44.371C173.254 41.5496 169.567 40.3545 162.363 39.1603C154.823 37.8814 153.601 37.8989 161.209 40.3183C168.551 41.9455 172.408 43.1815 178.942 45.8185ZM164.67 43.7921C161.284 40.9329 162.473 41.4733 166.544 43.7921C170.878 46.4672 173.066 48.0576 176.636 51.0292C179.33 54.131 179.006 54.161 175.482 51.4634L164.67 43.7921ZM147.946 44.95C151.831 46.7938 151.946 47.076 146.504 45.529C143.767 44.4262 142.133 44.1227 139.152 43.7921C135.549 43.2474 135.143 43.0773 139.584 43.0684C142.989 43.3388 144.817 43.7643 147.946 44.95ZM154.578 50.1607C163.149 51.2674 160.777 50.5949 155.587 49.2923C150.397 47.9896 146.948 46.5221 144.486 46.2527C142.024 45.9833 140.672 45.9016 138.286 45.8185L126.897 46.8316H121.419C118.377 47.4904 117.555 47.7885 121.995 47.8448C124.234 48.0178 124.205 48.3288 122.572 49.1475L118.103 50.4502C112.052 52.0607 114.15 51.8122 118.824 51.1739L124.446 50.5949L132.952 48.1344C138.059 47.4217 141.024 47.3393 146.504 47.8448L154.578 50.1607ZM160.633 55.6609C171.3 58.5325 169.246 57.5752 162.219 54.7924L149.243 52.3318C145.369 51.4813 143.128 51.2275 139.007 51.1739C132.474 50.9937 128.672 51.2297 121.851 51.7529L113.057 52.9108H106.281C101.629 52.5801 101.458 52.7589 105.848 53.7793C109.834 54.5199 115.796 54.2135 115.796 54.2135C115.796 54.2135 124.281 52.9465 130.069 52.3318H138.431C143.181 52.3392 145.788 52.4375 149.82 53.6345L160.633 55.6609ZM99.3606 53.7793C95.9592 51.3423 95.7519 51.3662 99.3606 54.6477L106.281 58.411C111.787 60.2553 115.534 61.0398 123.293 62.0295L132.52 62.7533C135.229 63.3335 137.162 63.9659 141.17 65.5033L148.09 68.8324C156.284 73.8324 155.822 73.2243 149.243 68.2534C143.003 64.3621 139.261 63.0488 132.376 61.4506L110.029 57.6873C105.733 57.083 103.432 55.9782 99.3606 53.7793ZM154.578 55.6609C148.529 55.2976 148.067 55.598 154.578 57.3978C160.774 59.3188 163.05 60.8766 166.832 63.7664C170.333 66.7911 171.753 68.714 173.896 72.3062C176.284 75.6479 176.325 75.2361 173.176 68.8324L168.706 63.477C164.034 59.2784 161.097 57.3546 154.578 55.6609ZM130.501 57.3978C124.031 56.627 125.196 56.4867 132.087 56.5293L148.811 58.5557C155.734 60.0623 159.073 61.5653 164.237 65.2139L166.111 66.806C170.238 71.9735 170.627 72.7241 166.111 68.2534C160.386 63.5721 156.727 61.7049 149.243 60.0032C142.44 58.494 138.075 58.1727 130.501 57.3978ZM103.542 60.0032C101.232 57.4961 102.186 57.9284 105.127 59.7137L112.048 63.7664C114.984 65.133 116.74 65.7837 120.554 66.2271C126.523 67.0684 126.893 67.3457 120.554 67.385C116.102 67.1169 113.804 66.4877 110.029 64.4902L103.542 60.0032ZM126.897 64.0559C122.062 62.5566 123.137 62.5119 129.348 63.3322L147.658 71.7272C156.253 76.6754 160.551 79.9881 165.823 88.3726C167.319 90.9713 167.427 93.5381 167.553 98.215C166.987 102.348 166.743 101.651 166.4 95.6097C165.252 88.8649 163.68 85.9635 159.624 82.1487C152.573 75.5613 148.169 72.9663 139.872 69.4114L126.897 64.0559ZM110.75 73.8984C113.055 74.23 114.336 74.4111 111.038 72.1615L103.542 70.5693C98.1477 69.5075 98.8489 69.9913 103.109 71.7272L110.75 73.8984ZM114.643 77.3722C113.573 74.0297 113.37 74.3838 113.633 78.5301C114.667 81.9519 115.353 83.7427 116.949 86.4909C120.055 90.1287 121.958 91.9978 126.32 94.307C130.348 96.5054 129.812 95.9321 127.474 94.0175C123.031 91.1703 120.937 89.0745 117.67 84.754C115.895 82.1905 115.354 80.5084 114.643 77.3722ZM120.121 82.0039C118.406 79.7379 118.089 79.6213 119.544 83.0171L122.86 88.2278C125.064 90.6667 126.338 91.665 128.627 93.2938C131.351 95.1349 131.919 95.3713 129.925 93.2938L124.158 87.7936L120.121 82.0039ZM173.176 86.0567C174.344 80.4195 174.467 81.1852 173.896 88.3726C173.019 93.4244 172.361 96.1585 170.581 100.676C168.577 105.495 168.469 104.908 169.571 99.6624L170.869 95.1754L173.176 86.0567ZM180.384 75.6353C179.268 69.415 179.194 71.4609 179.231 76.7932C178.786 83.5315 178.049 86.7603 175.626 91.2674C172.063 98.8289 172.344 99.0204 176.492 92.8596C178.839 89.4984 179.668 87.0279 180.384 81.7144V75.6353ZM106.137 152.493C107.539 154.047 107.881 154.036 106.857 150.756C104.674 146.912 103.557 145.601 101.667 144.098C100.971 143.726 100.505 143.709 99.5048 144.098C97.7726 145.697 97.3308 146.721 97.3422 148.73V156.691C97.7065 162.942 98.1933 166.211 99.9373 171.31L104.262 179.705L107.002 183.613C108.063 185.039 108.809 185.355 110.318 185.35C111.438 185.351 111.769 185.166 111.327 184.192C109.705 179.577 109.229 176.707 108.587 171.454L108.155 167.836C108.175 166.69 107.903 166.82 107.29 167.402L106.281 168.56C105.726 168.907 105.456 168.854 105.127 168.27L103.83 165.954C103.754 165.363 103.977 165.122 104.695 164.796L106.857 162.625C107.304 162.153 107.354 161.821 107.29 161.178V159.586C106.432 157.615 105.769 156.634 104.262 155.099L103.109 153.217C102.406 152.278 102.129 152.181 101.956 153.217L101.091 158.428C100.725 161.776 100.94 163.483 101.667 166.388L103.109 170.586C104.976 174.027 104.791 174.351 102.677 172.612C101.08 170.202 100.584 168.621 99.9373 165.665C99.4984 162.358 99.3864 160.451 99.3606 156.98V152.348C99.4097 151.5 99.2974 151.133 98.9281 150.612V148.73C99.2047 148.16 99.5263 148.13 100.226 148.296C102.078 148.369 103.049 148.933 104.695 150.756L106.137 152.493ZM230.411 154.085C228.667 157.042 227.996 157.816 228.681 153.796C229.449 149.205 230.65 147.399 233.583 144.967C234.988 143.672 235.778 143.748 237.187 144.532C238.533 145.204 238.628 146.126 238.34 148.151L237.908 155.678L236.61 164.362C235.403 169.782 234.306 172.565 231.42 176.955C229.713 180.405 228.527 181.808 226.23 183.902C224.073 185.126 223.432 185.039 224.068 182.455L226.23 172.612C227.131 168.238 227.34 168.026 227.239 171.165C227.176 172.523 227.423 172.445 228.249 171.165L229.69 168.704C230.312 167.345 230.311 166.556 229.69 165.086C228.241 163.622 228.476 161.94 229.69 158.283L231.997 154.375C233.915 151.134 234.402 151.424 234.592 154.375C234.795 158.342 234.603 160.611 233.294 164.796L231.709 169.139C230.887 171.977 231.262 171.851 232.862 169.718C234.236 166.298 234.832 164.298 235.601 160.599C236.315 155.955 236.576 153.357 236.899 148.73C237.191 147.008 236.749 146.867 234.736 148.296C232.882 150.236 231.98 151.59 230.411 154.085ZM165.39 211.114L168.274 213.14C169.262 213.5 169.788 213.236 170.725 212.706L173.031 211.403C173.68 211.031 173.803 210.673 173.896 209.956V209.377C173.966 208.11 174.093 208.515 174.329 209.377C174.914 211.603 175.664 212.298 177.645 212.706H179.375C180.876 212.897 181.17 213.118 181.393 213.574C181.571 213.916 181.706 213.684 181.97 212.995L181.682 212.416C181.585 211.474 181.756 211.435 182.402 212.127C183.697 214.002 184.674 214.627 186.872 215.022C188.436 215.372 189.234 216.052 190.62 217.482C191.341 217.252 191.575 217.528 191.918 218.206L193.215 221.101C193.489 222.167 193.344 222.274 192.639 221.68C192.167 221.122 192 221.121 192.062 222.259L193.071 225.443C193.763 226.916 193.644 227.113 192.639 226.456L191.918 226.022C191.143 225.599 190.994 225.725 191.341 226.746L192.206 228.193C192.815 229.225 192.64 229.27 191.773 228.772C190.671 228.463 190.636 228.783 190.908 229.641V230.654C191.067 231.403 190.938 231.516 190.476 231.378C189.703 230.669 189.582 230.863 189.611 231.667L189.899 232.68C190.446 233.945 190.352 234.023 189.611 233.259C188.528 232.07 188.279 232.002 188.746 233.404C189.198 234.274 189.122 234.358 188.313 233.693C187.12 232.61 187.46 233.321 188.602 235.286C189.038 236.137 189.015 236.313 188.169 235.72L187.304 234.707C186.103 233.515 185.688 233.492 185.863 235.72L186.439 237.022C186.755 238.465 186.699 238.779 185.574 237.167L183.844 235.575C182.554 234.683 182.475 234.93 183.123 236.299L183.556 237.167C184.068 238.415 184.066 238.608 183.123 237.312L181.826 235.72C180.642 234.47 180.544 234.779 181.249 236.878L182.402 239.194C182.94 240.974 182.896 241.24 181.826 239.628C180.891 237.564 180.115 236.525 178.654 234.707C177.732 233.909 177.488 233.994 177.645 235.286L178.077 236.299C178.661 238.057 178.458 238.073 177.357 236.733L175.626 233.114C175.276 231.015 175.265 230.451 175.05 229.496C174.834 228.541 174.904 228.739 175.338 229.062L175.482 229.641C175.939 230.592 176.022 230.281 176.059 229.206L175.771 226.601C175.674 225.989 175.96 225.875 176.78 225.877H177.789C178.318 225.91 178.42 225.681 178.51 225.154L178.366 224.285C178.16 223.987 177.886 223.977 177.068 224.285C175.331 224.657 174.392 224.555 172.743 224.14C171.864 223.976 171.586 224.024 171.59 224.43C171.468 225.019 171.217 225.001 170.436 224.285C170.031 223.681 169.725 223.64 168.995 224.285C168.419 224.929 167.957 224.988 166.832 224.43C164.491 223.988 163.017 223.88 160.2 223.851L159.768 223.706C158.925 223.564 158.81 223.824 158.903 224.575L159.191 226.891C159.089 228.029 159.416 227.672 160.056 226.891L160.489 226.456C161.249 225.916 161.355 226.135 161.498 226.601L160.921 229.641C160.711 231.529 161.072 231.086 161.786 230.075V229.206C162.543 228.304 162.53 228.679 162.507 229.347L162.507 229.351C162.183 232.044 161.698 233.347 160.489 235.43L158.47 238.325C156.898 240.813 156.558 241.164 157.749 238.325L159.191 236.299C160.179 233.653 159.974 233.38 158.326 234.996L153.568 239.773C152.619 241.022 152.353 241.178 152.848 239.483L155.875 235.72C156.939 234.503 156.754 234.359 155.154 234.996C154.599 234.963 154.282 234.949 153.424 235.141L150.541 237.746C149.561 238.486 149.242 238.564 149.82 237.022L150.541 235.72C150.924 234.709 150.837 234.407 149.388 234.996C148.481 235.809 148.143 236.027 148.667 234.851C149.261 234.14 149.208 233.97 148.09 234.272C146.95 235.369 146.71 235.369 147.369 233.693L147.946 232.97C148.401 232.091 148.434 231.782 147.081 232.391C146.063 233.503 145.889 233.47 146.36 232.101C146.936 231.179 146.941 230.984 146.072 231.522C145.377 231.922 145.287 231.766 145.783 230.654C147.061 229.113 147.213 228.762 145.351 230.075C144.04 231.278 143.718 231.411 144.342 230.075L144.918 227.325C144.934 226.56 144.823 226.423 144.342 226.891L143.621 227.47C142.297 228.004 142.233 227.779 143.332 226.456L144.053 226.022C144.713 225.042 144.502 224.811 143.332 224.864C141.958 225.539 141.834 225.283 142.9 223.562C143.95 223.007 144.083 222.62 143.621 221.825C143.605 220.869 143.789 220.392 144.486 219.653L146.937 216.903C147.169 216.506 147.373 216.323 147.658 216.28L148.811 215.745C148.295 215.595 148.273 215.463 149.388 215.022L153.568 213.864C154.674 213.054 154.297 213.216 154.289 213.864C154.122 214.323 154.699 214.158 155.727 213.865L155.731 213.864L156.74 212.995C157.295 212.111 157.572 212.068 158.038 212.706C157.61 213.464 158.081 213.367 159.191 212.995L160.921 210.39C162.194 207.248 161.952 208.514 161.642 210.39L161.065 212.127C160.652 212.879 161.046 212.856 162.507 212.272C163.304 212 163.7 211.709 164.381 211.114C164.773 210.559 164.994 210.758 165.384 211.108L165.39 211.114Z" fill="black"/>
<path d="M148.234 216.324C152.63 217.106 155.275 217.255 160.2 217.193C163.28 217.705 165.02 217.839 168.13 217.917C171.689 217.832 173.03 217.677 175.05 217.338H178.654L183.844 217.048L187.16 216.759C188.644 215.892 188.241 215.726 186.295 215.745L178.51 215.022C175.059 214.795 173.225 214.876 170.148 215.456C163.342 214.633 160.061 214.778 154.578 215.456L148.811 215.745L147.658 216.28C147.818 216.255 148.004 216.275 148.234 216.324Z" fill="black"/>
<path fill-rule="evenodd" clip-rule="evenodd" d="M119.4 151.191C116.641 153.422 116.229 154.164 120.554 153.217L127.185 153.362L132.376 154.23L139.728 155.678C140.71 156.045 140.677 156.201 139.728 156.401L137.854 156.546C135.397 156.764 133.972 157.136 131.366 158.138L127.33 160.309C126.245 160.642 126.06 160.923 126.609 161.612L128.05 163.059C128.503 163.347 128.79 163.365 129.348 163.204L130.79 162.046C131.398 161.601 131.712 161.615 132.376 162.046L135.403 163.783C137.305 163.906 137.105 163.634 136.412 163.059L133.673 161.322C133.098 160.92 133.144 160.699 133.817 160.309L136.989 158.862C137.973 158.651 138.373 158.636 138.286 159.151L138.863 160.599C140.634 162.743 141.736 163.658 144.486 163.204C146.898 162.076 147.685 161.204 147.946 159.151C147.976 158.407 148.208 158.432 148.955 159.151L151.55 161.612C152.074 162.397 152.057 162.688 150.829 162.625L149.532 162.915C149.047 163.525 149.066 163.735 149.82 163.783H151.406C152.069 163.669 152.434 163.633 152.992 163.928L155.01 165.375C155.853 166.061 156.215 166.028 156.596 164.941C157.057 164.287 157.061 163.799 156.74 162.77L155.875 161.612L153.713 159.441C153.339 158.631 153.943 158.805 155.443 159.441L157.461 160.888L160.921 164.507C161.5 165.365 161.571 165.945 161.354 167.112C161.256 168.498 161.6 168.307 162.507 167.257L162.94 165.665L163.084 162.915C162.806 161.03 162.402 160.093 160.777 158.862C160.049 158.37 159.893 158.061 160.344 157.414L160.777 156.401C161.065 155.414 161.109 154.815 160.921 153.651C160.271 153.159 159.991 153.07 159.768 153.506V153.941C159.395 154.759 159.201 154.782 158.903 153.651C158.869 153.18 158.812 152.98 158.614 152.783L157.894 152.638L154.001 152.059L141.17 148.875C137.614 148.032 135.593 147.297 131.943 145.546H130.069C125.691 146.908 123.388 148.276 119.4 151.191ZM143.909 158.283C142.756 158.283 142.756 160.02 143.909 160.02C145.062 160.02 145.062 158.283 143.909 158.283Z" fill="black"/>
<path d="M175.915 186.942C175.701 187.213 175.577 187.22 175.338 186.942V182.165V175.652V167.402L175.626 165.954L177.645 160.599C177.905 159.978 177.982 159.678 177.068 159.875L175.482 160.165C174.29 159.87 173.701 159.462 173.031 157.559V154.664C173.614 153.7 173.789 153.886 174.041 154.52L175.194 156.98C176.012 157.852 176.147 157.587 176.203 156.691L176.059 154.085C175.981 153.501 176.156 153.359 176.78 153.362C182.129 152.86 185.103 152.416 190.332 151.191C196.756 149.728 200.31 148.694 206.479 146.125C207.348 145.457 207.784 145.368 208.497 145.546C213.783 148.106 216.55 149.656 220.607 152.927C221.392 153.946 221.36 154.28 220.031 154.23C217.799 153.294 216.125 153.141 212.246 153.651L201 155.678C199.59 156.115 199.946 156.188 201 156.257C205.536 157.316 207.81 158.151 210.948 160.454C211.59 160.979 211.73 161.266 211.236 161.757L210.371 162.625C209.817 162.99 209.481 163.076 208.786 162.77L207.921 161.901C207.277 161.477 206.922 161.336 206.335 161.901L205.037 162.77C204.633 163.149 204.491 163.427 203.307 163.204C202.967 162.941 202.741 162.946 202.298 163.204L201.433 163.494C200.289 163.779 199.705 163.905 200.424 163.059L204.316 161.178C205.003 160.628 205.028 160.401 204.316 160.165L201.433 159.007C200.707 158.668 200.356 158.554 200.424 159.296C200.276 160.213 200.385 160.732 199.559 161.612C198.172 162.897 197.065 163.512 194.657 163.204C192.171 162.346 191.131 161.449 190.476 158.428C190.22 157.98 190.041 157.922 189.611 158.428L186.583 161.178C186.227 161.789 186.299 162.007 186.872 162.191L189.034 163.059C189.667 163.742 189.636 163.895 188.89 163.783H185.863C185.435 163.729 185.164 163.763 184.565 164.073L182.402 165.086C181.126 165.571 180.983 165.099 181.537 163.204C182.945 161.648 183.759 160.841 185.286 159.586C185.832 158.825 185.717 158.688 184.277 159.296L182.691 160.165L180.24 162.336L177.645 165.954C177.118 166.574 176.86 167.034 176.491 168.125V172.612L175.915 178.402V186.942Z" fill="black"/>
<path d="M92.0079 80.1222C91.3986 78.5598 92.035 79.0034 93.3055 79.9775L97.6306 83.7408C101.363 87.223 103.507 89.0316 107.578 91.5569C108.417 91.9997 108.59 92.1765 108.011 92.2806H103.542C99.1671 90.8704 97.8534 89.7886 96.333 87.6488L92.0079 80.1222Z" fill="black"/>
<path d="M243.675 95.0307C243.536 92.8288 243.314 92.8067 242.665 95.0307L241.08 99.373C239.38 104.011 237.698 106.075 233.15 108.636C229.245 109.659 227.034 109.768 223.058 109.36L220.031 108.926C219.066 109.024 218.561 109.088 218.301 109.36L216.571 110.808C216.212 111.494 216.224 111.722 216.859 111.676H219.022C224.333 112.525 226.876 113.001 229.546 113.847H231.709C236.465 113.642 238.349 112.873 240.359 110.373C242.741 105.71 243.393 102.263 243.675 95.0307Z" fill="black"/>
<path d="M178.942 224.575V223.851C178.99 223.406 179.126 223.427 179.519 223.851V224.575C179.218 225.05 179.087 225.103 178.942 224.575Z" fill="black"/>
<path d="M158.47 223.417C157.852 223.25 157.596 223.269 157.461 223.706L157.317 224.285C157.367 224.85 157.675 224.837 158.182 224.864C158.251 224.831 158.228 224.639 158.182 224.285C158.547 223.682 158.598 223.504 158.47 223.417Z" fill="black"/>
<path d="M161.642 330.381C161.981 327.103 162.202 325.437 162.651 322.855C163.615 319.334 163.955 316.98 164.381 312.433C165.086 311.878 165.463 311.917 166.111 312.433V330.373M166.111 330.373C169.135 330.413 172.185 330.614 176.059 330.96C175.059 323.851 174.148 320.152 171.59 314.315C173.149 313.114 173.884 312.303 174.906 310.551C178.111 305.414 179.827 302.706 181.682 300.42C184.767 299.098 186.459 298.235 189.323 296.222C189.653 295.948 189.806 295.973 190.043 296.222L201.721 314.46C201.939 314.675 202.033 314.668 202.154 314.46L208.641 287.827C211.324 276.591 212.64 269.952 214.697 257.576C215.683 252.776 216.142 249.414 216.715 241.654C216.756 241.353 216.877 241.415 217.147 241.654L221.04 249.036C224.621 256.51 226.387 260.814 228.104 269.155C229.79 276.245 230.431 280.517 230.988 288.695V302.446L230.267 311.999C232.271 305.426 232.763 301.304 233.15 293.617C233.312 285.676 232.981 280.952 231.42 271.905C229.379 262.485 227.692 257.469 223.635 249.036C220.692 243.332 219.185 241.095 216.715 238.904C216.969 233.208 216.832 230.107 214.841 225.154V224.14L218.877 230.943L224.068 236.444C228.329 240.655 230.391 243.45 233.294 249.47L238.917 263.655L244.684 280.156L246.126 284.353V281.893L243.242 269.879L238.485 255.55C237.043 251.063 233.727 243.102 232.429 241.944C231.132 240.786 235.972 244.224 237.331 246.286C239.53 249.365 240.875 250.85 243.675 252.655L254.632 258.3L269.049 265.247L285.917 272.629L302.64 280.011V276.971C302.45 276.914 302.273 276.803 301.775 276.392L300.333 275.813L257.803 256.563C251.516 253.402 243.157 249.036 241.656 247.589C240.156 246.141 238.773 243.246 236.61 241.51C234.448 239.773 230.844 238.615 230.844 238.615L224.788 233.115C223.305 231.661 222.483 230.733 221.04 228.772L218.589 225.154L215.994 221.825L215.417 221.535C214.818 221.715 214.65 221.584 214.841 220.667C217.199 214.528 218.229 210.476 219.742 202.574L221.472 193.6L222.77 187.087H225.221C226.563 186.617 227.424 185.837 229.113 183.613L232.285 178.547L235.601 172.323L238.34 163.928L239.782 153.796C240.153 151.098 240.232 149.213 240.07 144.967C240.181 144.27 237.475 141.638 237.475 141.638L240.07 129.914C241.501 123.419 242.128 118.975 243.098 110.373C243.057 110.36 242.934 110.363 242.665 110.373H241.8C241.225 110.273 241.111 110.368 241.08 110.663C238.996 113.305 237.541 114.292 234.159 114.716H229.114C225.562 114.13 223.595 113.721 220.175 112.689H217.58C216.95 112.577 216.632 112.556 216.571 113.123V114.571C216.457 114.968 216.46 115.125 216.715 115.15L219.454 116.018L227.239 118.624L233.15 119.203C235.845 120.21 236.008 120.499 233.15 120.361C230.6 120.197 229.176 120.063 226.663 119.637C223.531 118.267 221.617 117.63 217.724 116.887M166.111 330.373C162.895 330.331 159.707 330.472 155.587 330.815C156.372 324.881 157.162 321.32 159.335 314.46C158.175 314 157.088 311.387 154.866 305.196L152.415 300.275C152.281 299.891 152.128 299.731 151.694 299.551C148.743 299.539 146.802 298.822 143.044 296.801C142.581 296.655 142.376 296.688 142.179 297.09L134.25 308.67L130.501 314.17C130.192 314.43 130.055 314.373 129.925 313.881L127.762 302.735L121.995 279.432L116.517 254.826L115.652 248.168C115.57 247.607 115.412 247.688 115.075 248.023C111.505 254.331 109.802 258.207 107.002 265.392C104.968 271.509 104.196 274.974 102.965 281.169C101.742 287.257 101.467 290.937 101.235 297.669V306.643L101.523 312.433L101.667 314.46C101.577 315.057 101.433 315.05 101.091 314.749C100.266 311.575 99.8653 309.099 99.2164 303.893C98.7153 296.689 98.842 292.875 99.3606 286.235C100.218 279.591 100.875 275.985 102.965 270.168C105.841 260.699 107.748 255.488 113.201 246.865L115.075 244.694C115.402 244.35 115.408 244.067 115.363 243.536V236.444C115.393 234.67 115.817 233.323 117.382 230.22C117.429 229.754 117.285 229.684 116.661 229.93L112.624 236.588C109.038 240.38 107.134 242.78 103.83 247.299C100.66 252.566 99.4753 255.779 97.6306 261.629L93.8821 273.932L92.4404 280.735L90.9987 286.524C90.7011 286.912 90.5425 286.902 90.2779 286.235L91.7196 277.116L94.7472 263.945L96.9097 255.984C97.8716 252.27 98.7777 250.287 100.802 246.865C101.018 246.308 100.981 246.135 100.226 246.431C98.0545 247.919 96.5677 249.882 93.8821 253.523C93.015 254.714 92.5067 255.072 91.5754 255.405L73.5542 266.26L62.5973 272.34L51.4962 278.853L45.0085 282.761V279.721L66.634 266.839L83.3577 257.142C83.3577 257.142 87.3945 255.405 90.7104 252.799C94.0263 250.194 95.0355 247.733 96.7655 246.431C98.5487 245.036 99.5986 244.512 101.523 243.825C106.282 239.439 108.663 236.81 112.624 231.957L118.824 223.272C119.069 222.761 119.059 222.453 118.885 221.982M211.381 226.891C209.086 233.419 207.572 236.781 204.028 241.654C197.248 251.055 193.154 255.499 185.43 262.208C179.174 267.368 175.587 270.031 168.995 274.366C168.324 275.035 168.106 275.345 168.274 275.669M211.381 226.891L211.536 226.611M211.381 226.891C211.436 226.777 211.488 226.685 211.536 226.611M168.274 275.669L169.427 275.524C172.057 274.684 173.492 274.142 175.915 272.919C176.827 272.639 177.288 272.597 177.933 272.919L181.97 277.261L189.755 287.682C194.416 294.6 196.95 298.546 200.568 306.354C200.985 307.176 201.104 306.945 201.289 306.354L203.163 297.525L207.056 281.603L211.236 260.181C212.587 252.514 213.115 247.95 213.687 239.338C213.709 234.302 213.456 231.557 212.246 226.891C211.983 226.377 211.813 226.187 211.536 226.611M168.274 275.669L163.949 275.524M156.74 278.274L149.676 286.524C149.351 287.019 149.317 287.277 149.676 287.682L153.136 290.867C153.455 291.494 153.541 291.772 153.568 292.169C153.905 292.36 154.188 292.168 154.722 291.735C159.967 289.569 163.255 289.236 169.427 289.419L178.798 282.906C179.127 282.458 179.145 282.118 178.798 281.314L175.338 277.261C168.307 278.417 164.214 278.366 157.119 278.279M156.74 278.274L157.119 278.279M156.74 278.274C156.868 278.276 156.994 278.277 157.119 278.279M118.824 221.825C117.453 218.528 116.926 215.584 115.94 210.535L112.913 193.889L111.615 187.666C111.484 187.097 111.339 186.938 110.894 187.087C109.63 187.812 108.659 187.613 106.281 185.784C104.713 184.42 103.955 183.062 102.677 180.284L98.3514 171.31C96.896 166.813 96.4536 163.55 95.9005 157.27V147.283C96.2701 144.704 96.9588 143.562 99.5048 142.361L99.0723 139.901C98.4563 136.802 97.9412 133.05 96.9097 124.992C96.1236 118.744 95.7619 115.059 95.1797 108.347L94.4588 103.57C94.5352 103.303 94.7641 103.602 95.1797 104.149C96.6741 105.818 97.5539 106.43 99.2164 106.9C101.392 107.359 102.546 107.451 104.551 107.478H107.867C108.422 107.389 108.587 107.044 107.867 106.9C103.664 106.753 101.838 106.292 99.2164 105.018C96.0379 103.319 95.3568 102.118 94.8913 99.8072C94.3707 97.6696 94.2263 96.4627 94.0263 94.307C94.0725 93.6946 94.3148 93.9298 94.8913 94.7412C96.427 97.5857 97.5206 98.7873 99.7931 100.386C102.135 101.774 103.431 102.366 105.704 103.136L109.885 104.005C110.659 104.071 110.745 103.938 110.029 103.281C106.869 102.35 105.161 101.663 102.244 100.097C99.3644 98.4668 98.1734 97.1971 96.6214 94.4517C95.7513 92.2927 95.434 90.9741 95.0355 88.5173C95.3515 88.3507 95.589 88.5604 96.0447 89.0963C99.3623 92.411 101.445 93.8108 105.992 94.5965C110.792 94.9051 113.097 95.2693 116.373 96.3334L119.112 96.9123C120.081 96.9838 120.093 96.8257 119.544 96.3334C115.154 94.7918 112.872 93.3486 108.876 90.5437C103.908 87.7713 101.446 85.2323 97.0539 80.7012C96.2437 79.7316 96.3921 79.7161 97.7747 80.7012C102.355 83.9305 105.096 85.1709 110.173 86.7804C111.106 87.1326 111.247 86.9868 110.75 86.0567L100.514 80.9907C95.5381 78.2638 93.3666 76.4935 90.2779 73.0299L89.557 72.1615C89.0413 71.0249 89.3354 71.0944 90.2779 71.7272L96.9097 75.78C97.3396 76.0172 97.4965 75.9829 97.4864 75.3458L97.1981 73.6089C97.0987 72.9472 97.4688 73.1479 98.2072 73.6089L103.109 75.78C104.287 75.9933 104.371 75.7588 103.83 74.9115L96.9097 71.4377C93.3779 69.7281 91.5052 68.3875 88.2595 65.6481C87.3202 64.9337 86.7104 64.6283 85.5203 64.2007C84.7966 63.8468 85.1671 63.7832 86.3853 63.7664L91.2871 64.7796L101.667 64.4902L105.127 64.0559C105.955 63.9765 105.817 63.7733 105.272 63.3322C99.7251 60.5509 97.0443 58.0244 92.7288 52.4766C90.8264 49.7351 89.9168 47.5532 88.4037 43.2131C88.2441 42.2072 88.4558 42.212 89.2687 43.0684C93.8289 46.1622 96.5052 46.9556 101.379 47.5554C104.699 48.0194 106.561 48.1134 109.885 48.1344H111.183C111.716 48.1575 111.508 48.0702 111.038 47.4106C108.565 46.2309 107.36 45.0529 105.272 42.7789L103.686 40.6078C103.42 39.8838 103.588 39.7686 104.407 40.0288L109.741 41.7657C114.956 42.6895 117.967 42.7584 123.581 41.621C130.415 39.9988 134.179 39.313 140.737 38.5814L145.207 38.1471C145.693 37.9985 145.597 37.84 144.774 37.4234L136.989 37.7129L128.627 38.7261L124.735 39.0156C123.642 39.1174 123.471 39.042 124.735 38.4366L131.799 36.555L137.998 34.6733C142.039 33.2039 144.198 32.8017 147.946 32.5022C151.309 32.482 152.706 32.7691 154.578 33.6601L157.749 34.8181C159.01 35.2104 159.091 35.1074 158.47 34.5286L154.434 32.2127L149.243 29.6074L146.36 28.3047C145.071 27.6713 145.529 27.6333 146.937 27.7257C149.4 28.41 150.752 28.6319 153.136 28.8837L167.985 29.0284C168.696 29.0794 168.627 28.9259 167.985 28.4494C164.655 27.8329 162.83 27.1553 159.624 25.5546L155.443 23.2387C154.275 22.537 154.376 22.3587 155.731 22.3703L161.354 24.3967C164.227 25.2401 165.837 25.611 168.706 25.9888C174.807 26.4674 177.663 26.8755 181.682 27.8705C186.038 29.0265 188.197 29.8892 191.774 31.6338C192.577 31.9205 192.658 31.7516 192.35 31.0548C191.065 28.479 190.739 26.296 190.332 22.0808C190.336 19.8234 190.433 18.5803 190.908 16.4359C191.136 15.9418 191.629 16.8701 191.629 16.8701C191.742 18.943 192.005 19.7206 192.494 21.0676C194.217 24.9541 195.792 26.5513 198.838 29.1731L204.893 33.9496L214.841 40.3183C219.261 43.5307 221.159 45.7244 222.914 50.7397C224.501 55.9278 224.873 58.8809 224.933 64.2007C224.057 70.0667 222.945 72.2518 220.463 75.0563L217.436 77.8064C216.788 78.1438 216.667 78.1037 217.147 77.3722C220.271 73.3306 221.484 70.999 222.193 66.6613C222.752 61.1724 222.531 58.2532 221.617 53.2003L219.742 48.7133C218.887 47.3812 218.872 47.6501 219.31 49.1475C220.66 53.0159 221.035 55.5902 221.328 60.5821C221.03 66.874 220.179 69.3242 217.868 72.451C214.298 77.8584 211.999 80.2272 207.776 84.175L201.577 88.8068C200.483 89.7287 200.787 89.7163 201.865 89.3858C207.785 87.4166 210.973 85.8284 216.282 81.5697C221.327 77.0921 223.351 73.9553 226.086 67.6745C227.314 62.7195 227.234 59.7627 225.942 54.2135L224.788 49.7265C224.403 48.9523 224.698 49.1195 225.365 49.5817C228.455 53.5365 229.339 55.9259 229.69 60.4374C229.673 67.4505 228.532 71.4724 224.356 78.8196C219.206 85.9279 215.375 88.8231 206.191 91.2674L200.856 91.9911C198.888 92.4148 199.439 92.5814 200.856 92.8596L206.479 92.5701C214.556 91.0654 218.358 88.2703 224.5 81.5697C229.469 73.8675 230.301 69.903 231.42 62.898C231.702 59.155 231.377 57.2888 230.267 54.2135C229.89 52.9822 229.985 52.8211 231.132 54.2135C233.352 58.3784 233.934 60.8788 233.727 65.6481C232.852 72.9711 231.736 76.9986 227.383 83.8856L224.933 86.9251C224.239 87.7543 224.656 87.6406 225.509 87.3594C230.416 84.2816 232.559 81.881 236.178 77.3722C237.995 74.2384 238.732 72.3047 239.782 68.6877C239.647 67.6288 239.498 67.5346 239.061 68.5429C237.511 72.4012 236.303 74.3709 234.015 77.8064L230.411 81.5697C229.828 82.0232 229.82 81.8539 230.123 81.1355C233.444 76.5086 234.457 73.917 234.88 69.2666L234.736 65.3586C234.702 64.8151 234.94 64.585 235.601 64.6349C239.12 63.2696 240.323 61.7884 241.656 57.9768C241.811 57.3179 241.996 57.4602 242.377 57.9768L242.521 66.3718C242.049 71.8941 241.286 74.3009 239.35 77.8064C236.081 82.7858 233.877 84.8655 229.69 88.0831C226.622 90.1175 224.765 91.0214 221.328 92.4253C220.486 93.1175 220.824 93.1581 221.617 93.1491L226.807 91.1227C230.513 89.3836 232.279 88.0403 235.169 85.333L236.8 83.8856C237.945 82.7811 237.858 83.169 237.475 84.175C235.236 88.378 233.538 90.2845 229.979 93.1491C228.955 94.1859 229.529 93.8909 230.267 93.5833C234.039 91.663 235.61 90.0384 237.908 86.6357L242.233 77.9511L243.531 75.6353C244.054 74.4966 244.063 74.9988 243.963 76.359L242.665 83.8856C241.451 87.7179 240.414 89.5685 238.052 92.4253C234.152 95.7976 231.327 97.0499 226.086 99.0835C224.95 99.6915 225.263 99.7542 226.518 99.6624L232.862 97.2018C237.028 95.5112 238.9 94.1235 241.512 90.9779L242.521 89.0963C243.308 87.7704 243.457 87.9612 243.386 89.3858C241.849 93.6672 240.767 95.883 238.629 99.6624C236.563 103.478 235.26 105.169 232.429 106.61L226.086 108.347H219.598C218.543 108.199 218.03 107.992 217.292 107.334C217.089 107.114 217.255 106.958 218.157 106.61L220.031 106.321C220.603 106.113 220.635 105.962 219.939 105.622M118.824 221.825L118.885 221.982M118.824 221.825C118.846 221.879 118.866 221.931 118.885 221.982M163.949 275.524C163.409 275.674 163.067 275.698 162.219 275.379L157.749 272.774C157.242 272.419 156.959 272.369 156.452 272.774L154.722 274.221C150.956 277.204 149.042 279.292 145.783 283.34C142.193 288.143 140.345 291.101 137.133 296.511L132.376 305.63C132.168 306.33 132.192 306.896 131.655 305.92L131.078 303.314L128.771 293.472L125.311 278.708L121.419 262.787C119.78 255.373 119.06 250.975 118.391 242.378C118.356 239.71 118.296 238.176 118.824 236.009L120.986 229.206C121.186 228.779 121.355 228.835 121.707 229.206C121.79 230.258 121.892 230.754 122.139 231.522L124.158 236.878C127.498 244.713 129.683 248.068 133.961 252.799C140.182 258.487 143.705 261.4 150.108 265.681L158.038 270.892L163.66 274.366C164.152 274.953 164.266 275.223 163.949 275.524ZM219.887 105.597C219.905 105.605 219.922 105.614 219.939 105.622M219.939 105.622L213.832 105.163C213.109 105.268 213.008 105.133 213.543 104.439C214.596 103.637 215.629 103.391 217.868 103.136C218.931 103.03 218.675 102.879 217.724 102.557C211.449 102.637 209.502 102.932 207.632 103.715L203.595 104.584C202.832 104.815 202.991 104.519 203.451 103.86L207.056 102.268L208.497 101.544C209.561 101.072 209.308 101.016 208.065 101.11L202.442 102.702L195.666 104.439C195.023 104.551 194.924 104.446 195.378 103.86L197.829 102.557C198.354 102.024 198.112 101.985 197.252 102.123C194.703 102.769 193.287 103.313 190.764 104.584C190.099 104.827 190.184 104.567 190.62 103.86L192.783 102.123C192.97 101.534 192.706 101.507 191.774 101.834L184.133 104.728C182.809 105.413 182.585 105.315 183.412 104.005L185.142 102.268C185.562 101.624 185.432 101.559 184.709 101.834L176.492 107.189C175.765 107.433 175.629 107.312 175.915 106.61L178.077 103.426C178.255 102.662 178.141 102.631 177.501 103.281L174.617 106.031C174.179 106.3 174.015 106.305 174.041 105.742L174.761 104.584C174.876 104.112 174.63 104.173 174.041 104.439L169.571 108.492C168.968 108.75 168.623 108.778 167.985 108.347L161.209 103.715C159.992 103.044 160.002 103.24 160.344 103.86L161.786 106.321C162.002 107.019 161.8 107.066 161.065 106.755L156.019 103.281C154.852 102.534 154.771 102.672 155.299 103.57L157.461 105.886C157.761 106.314 157.672 106.388 156.74 106.031L151.55 104.149C149.851 103.19 148.79 102.88 146.793 102.557L145.062 102.123C144.125 101.971 144.014 102.076 144.63 102.557L147.513 104.149C148.077 104.699 147.869 104.793 146.937 104.728L138.863 103.281L136.989 102.847C135.464 102.573 135.634 102.781 136.701 103.426L138.575 104.439C139.476 105.133 139.182 105.19 137.998 105.018C134.272 103.948 132.012 103.558 127.762 103.136L120.986 102.557C118.956 102.397 119.381 102.622 120.698 103.136C122.643 103.534 123.521 103.869 124.59 104.728C125.061 105.093 124.984 105.223 124.158 105.307C121.269 105.299 119.663 105.469 116.805 105.886C116.156 106.128 116.239 106.325 116.949 106.755C118.988 107.204 119.727 107.526 120.409 108.202C120.774 108.536 120.594 108.578 119.833 108.492L102.677 108.636C100.448 109.489 99.8295 110.397 99.0723 112.255C99.0091 112.795 99.2228 112.789 99.7931 112.544C102.344 110.715 103.733 110.202 106.137 110.229L118.247 109.36C120.046 109.657 120.524 110.081 120.842 111.097C120.888 111.506 120.193 111.541 118.679 111.531L113.345 111.821C109.93 112.554 108.414 113.464 105.992 115.439L101.379 119.926C100.249 121.335 100.796 121.044 101.729 120.549M101.811 120.505C108.693 115.54 112.084 113.829 117.238 112.834L120.121 112.689C120.818 112.622 120.869 112.824 120.842 113.268V114.571C120.884 114.962 120.716 115.119 120.121 115.295C114.214 116.804 111.202 118.315 105.992 121.374C103.578 123.104 102.472 124.428 100.658 127.019C100.27 128.063 100.521 127.98 101.235 127.453C105.872 122.766 108.628 120.766 113.922 118.768L120.121 116.163L120.986 116.018C121.215 116.069 121.269 116.248 121.274 116.742C121.207 117.074 121.055 117.406 120.554 117.755L115.363 119.926L108.587 124.124C105.884 126.394 104.733 127.865 102.684 130.482M101.811 120.505L101.729 120.549M101.811 120.505C101.784 120.52 101.756 120.535 101.729 120.549M102.677 130.492C101.655 132.471 101.807 132.481 103.109 130.927C107.909 126.305 110.567 123.891 114.931 121.663L120.121 119.492C120.906 119.176 121.099 119.27 121.13 119.782V120.939C121.095 121.469 120.804 121.68 119.977 121.953L114.787 123.834C111.862 125.859 110.263 127.223 107.434 129.769L103.83 133.822C103.078 135.479 103.421 135.288 104.407 134.4L107.867 130.637C112.202 126.538 114.745 125.079 119.4 123.4L120.698 123.255C121.246 123.266 121.184 123.519 120.842 124.124L120.409 124.269C120.019 124.379 119.971 124.53 119.977 124.848V127.163C119.846 127.662 119.592 127.882 118.824 128.177C115.033 129.753 113.234 131.268 110.173 134.256L108.299 136.861C107.514 138.3 107.825 138.204 108.876 137.44L112.768 133.243L117.094 130.203L119.4 128.9C120.181 128.502 120.166 128.741 119.977 129.335C117.43 131.362 116.504 132.586 115.219 134.835C113.36 138.522 112.998 141.016 112.48 145.546C111.697 152.51 111.695 156.292 111.615 163.059C112.364 172.171 113.416 176.988 115.796 185.35L117.526 192.153C117.706 192.522 117.883 192.449 118.247 192.153L118.535 191.284C119.085 190.659 119.169 191.15 119.4 191.718L119.256 193.31C119.801 193.843 119.866 194.209 119.833 194.903L119.256 196.64C119.011 197.471 119.278 197.32 119.833 196.929L119.977 195.771C120.307 194.95 120.495 194.947 120.842 196.061L120.698 198.232C120.771 199.32 120.909 199.274 121.274 198.376V197.508C121.275 197.115 121.456 197.3 121.851 197.797C121.787 199.511 122.056 200.03 122.716 200.692V201.85C122.483 202.529 122.711 202.512 123.293 202.284C123.696 201.943 123.706 202.32 123.724 202.977M102.677 130.492L102.684 130.482M102.677 130.492C102.679 130.489 102.682 130.486 102.684 130.482M123.725 203.008V204.89C123.917 205.412 124.048 205.398 124.302 204.89L124.446 201.995C124.742 201.018 124.99 201.045 125.455 202.14L126.032 205.903V208.798C126.057 210.351 126.226 210.021 126.609 208.798V204.745C126.552 203.465 126.91 203.732 127.762 204.745L128.195 209.522C128.147 210.659 128.283 210.485 128.627 209.666L129.204 208.508C129.525 207.911 129.619 208.415 129.78 209.377C129.765 210.529 129.498 211.429 128.915 213.14C128.803 213.719 128.919 213.825 129.492 213.574L130.501 212.127C131.075 211.44 131.206 211.684 131.222 212.851C131.02 213.938 130.734 214.577 130.069 215.745C129.897 216.238 130.127 216.271 130.934 216.035C134.65 214.806 136.162 213.496 138.286 210.535C140.105 207.846 141.46 206.672 144.774 205.469C145.523 205.157 145.579 205.277 145.351 205.758L144.197 206.771C143.538 207.458 143.831 207.399 144.486 207.206L150.108 204.166C150.983 203.702 151.13 203.842 150.829 204.745L149.82 206.771C149.605 207.494 149.74 207.456 150.253 206.916C151.873 205.171 152.827 204.453 154.578 203.587C155.483 203.027 155.702 203.034 155.587 203.587C154.658 204.315 155.138 204.215 156.308 203.877L160.2 201.705L162.075 201.126C162.48 201.028 162.167 200.864 161.498 200.548C158.385 200.065 157.027 199.437 155.01 197.942C153.134 195.858 153.092 194.235 154.434 190.705L155.587 188.968C156.449 187.85 156.523 188.152 156.596 188.823C156.511 189.825 156.361 190.366 155.875 191.284C154.653 193.867 154.819 194.934 155.875 196.495C157.605 197.662 159.214 198.238 163.372 199.1C164.071 199.739 164.037 200.123 163.372 200.837C163.197 201.099 163.226 201.261 163.372 201.561C164.901 202.665 165.788 203.16 167.409 203.877C169.472 204.257 170.703 203.972 173.031 202.574C174.661 201.77 175.037 200.964 175.05 199.1C175.242 198.553 175.731 198.633 176.636 198.811C180.163 198.523 181.407 197.65 182.547 195.047C182.994 193.034 182.461 191.626 181.105 188.968C180.764 187.904 181.187 188.101 182.114 188.679C183.778 191.34 184.094 192.731 183.7 195.047C182.194 199.432 180.555 199.447 177.933 200.403H176.636C175.776 200.781 175.726 201.004 176.347 201.416L181.105 204.166C181.405 204.378 181.461 204.218 181.537 203.877L181.393 203.008C181.3 202.772 181.501 202.827 181.97 203.008L184.709 205.179C185.539 205.742 185.597 205.562 185.286 204.745L184.565 203.732C184.096 202.905 184.352 202.864 185.43 203.298L188.458 205.614C189.004 206.112 189.195 206.148 189.178 205.469C188.619 204.796 188.862 204.775 189.755 205.035C191.717 205.822 192.782 206.473 194.657 207.785C195.12 208.474 195.256 208.398 195.378 207.785L194.945 206.771C194.419 205.891 194.624 205.909 195.522 206.482C197.421 208.811 198.252 210.202 199.27 212.851C200.601 214.76 201.588 215.526 203.451 216.759H204.605C204.881 216.794 204.857 216.51 204.749 215.89L204.46 212.706C204.151 211.813 204.4 211.973 205.037 212.561L205.614 213.719C205.956 214.092 206.104 213.944 206.335 213.43L206.191 208.653C206.245 207.811 206.414 208.071 206.767 208.798L207.344 210.969C207.907 212.151 207.912 211.683 207.92 210.874M123.725 203.008L123.724 202.977M123.725 203.008C123.725 202.998 123.725 202.987 123.724 202.977M207.921 210.824L208.065 206.627C208.315 205.556 208.598 204.989 209.362 204.021C209.792 203.436 209.849 203.685 209.939 204.166L209.651 206.627C209.49 207.569 209.756 207.338 210.371 206.627V204.456C210.472 203.526 210.589 203.17 210.804 202.863L211.092 201.995V201.85V201.271C211.004 200.425 211.283 200.561 211.957 201.126L212.246 202.14C212.638 202.992 212.723 202.686 212.822 201.85L213.255 198.955C213.229 197.327 213.554 197.64 214.264 198.666V199.245C214.418 199.819 214.55 199.762 214.841 199.245V197.074C215.279 196.361 215.37 195.945 215.417 195.192V193.889C215.382 192.98 215.506 192.902 215.994 193.455L216.427 194.613C216.926 195.387 217.022 195.263 217.003 194.468L216.282 193.166C216.143 192.906 216.141 192.779 216.282 192.587V190.995C216.24 189.995 216.478 190.466 216.859 191.139C217.17 191.715 217.27 191.536 217.436 191.139L219.454 184.481L221.473 177.678C222.604 173.52 223.04 171.171 223.635 166.967C224.77 161.358 224.727 158.002 224.788 152.059L224.356 142.651C223.993 137.029 222.57 134.478 218.301 130.782C217.707 130.064 218.075 130.083 218.877 130.203C220.915 131.131 222.396 132.375 225.221 134.979L228.104 137.295C230.346 138.601 230.693 138.642 228.681 136.716L223.923 132.664L218.877 129.19L217.292 128.177C216.907 127.237 217.012 126.77 217.58 126.005C217.689 125.876 218.004 125.945 219.022 126.295L223.923 128.611L227.816 130.927L230.555 132.664C234.837 135.126 233.927 134.235 231.276 131.94L225.077 128.321L220.608 126.005L216.715 124.848C216.233 124.519 216.398 124.369 217.003 124.124H217.436C217.85 124.176 217.872 124.007 217.58 123.4L216.571 122.387C215.983 121.531 216.233 121.479 216.859 121.518L225.509 123.979L230.123 125.861C235.185 128.262 235.042 127.939 230.555 124.992L224.5 122.676L219.022 120.795L216.715 120.505C216.317 120.476 216.233 120.241 216.282 119.492L216.571 117.321C216.689 116.772 217.053 116.812 217.681 116.882M207.921 210.824L207.92 210.874M207.921 210.824C207.92 210.841 207.92 210.857 207.92 210.874M217.724 116.887L217.681 116.882M217.724 116.887C217.71 116.885 217.695 116.884 217.681 116.882M165.39 211.114L168.274 213.14C169.262 213.5 169.788 213.236 170.725 212.706L173.031 211.403C173.68 211.031 173.803 210.673 173.896 209.956V209.377C173.966 208.11 174.093 208.515 174.329 209.377C174.914 211.603 175.664 212.298 177.645 212.706H179.375C180.876 212.897 181.17 213.118 181.393 213.574C181.571 213.916 181.706 213.684 181.97 212.995L181.682 212.416C181.585 211.474 181.756 211.435 182.402 212.127C183.697 214.002 184.674 214.627 186.872 215.022C188.436 215.372 189.234 216.052 190.62 217.482C191.341 217.252 191.575 217.528 191.918 218.206L193.215 221.101C193.489 222.167 193.344 222.274 192.639 221.68C192.167 221.122 192 221.121 192.062 222.259L193.071 225.443C193.763 226.916 193.644 227.113 192.639 226.456L191.918 226.022C191.143 225.599 190.994 225.725 191.341 226.746L192.206 228.193C192.815 229.225 192.64 229.27 191.773 228.772C190.671 228.463 190.636 228.783 190.908 229.641V230.654C191.067 231.403 190.938 231.516 190.476 231.378C189.703 230.669 189.582 230.863 189.611 231.667L189.899 232.68C190.446 233.945 190.352 234.023 189.611 233.259C188.528 232.07 188.279 232.002 188.746 233.404C189.198 234.274 189.122 234.358 188.313 233.693C187.12 232.61 187.46 233.321 188.602 235.286C189.038 236.137 189.015 236.313 188.169 235.72L187.304 234.707C186.103 233.515 185.688 233.492 185.863 235.72L186.439 237.022C186.755 238.465 186.699 238.779 185.574 237.167L183.844 235.575C182.554 234.683 182.475 234.93 183.123 236.299L183.556 237.167C184.068 238.415 184.066 238.608 183.123 237.312L181.826 235.72C180.642 234.47 180.544 234.779 181.249 236.878L182.402 239.194C182.94 240.974 182.896 241.24 181.826 239.628C180.891 237.564 180.115 236.525 178.654 234.707C177.732 233.909 177.488 233.994 177.645 235.286L178.077 236.299C178.661 238.057 178.458 238.073 177.357 236.733L175.626 233.114C175.276 231.015 175.265 230.451 175.05 229.496C174.834 228.541 174.904 228.739 175.338 229.062L175.482 229.641C175.939 230.592 176.022 230.281 176.059 229.206L175.771 226.601C175.674 225.989 175.96 225.875 176.78 225.877H177.789C178.318 225.91 178.42 225.681 178.51 225.154L178.366 224.285C178.16 223.987 177.886 223.977 177.068 224.285C175.331 224.657 174.392 224.555 172.743 224.14C171.864 223.976 171.586 224.024 171.59 224.43C171.468 225.019 171.217 225.001 170.436 224.285C170.031 223.681 169.725 223.64 168.995 224.285C168.419 224.929 167.957 224.988 166.832 224.43C164.491 223.988 163.017 223.88 160.2 223.851L159.768 223.706C158.925 223.564 158.81 223.824 158.903 224.575L159.191 226.891C159.089 228.029 159.416 227.672 160.056 226.891L160.489 226.456C161.249 225.916 161.355 226.135 161.498 226.601L160.921 229.641C160.711 231.529 161.072 231.086 161.786 230.075V229.206C162.543 228.304 162.53 228.679 162.507 229.347M165.39 211.114L165.384 211.108M165.39 211.114C165.388 211.112 165.386 211.11 165.384 211.108M162.507 229.351C162.183 232.044 161.698 233.347 160.489 235.43L158.47 238.325C156.898 240.813 156.558 241.164 157.749 238.325L159.191 236.299C160.179 233.653 159.974 233.38 158.326 234.996L153.568 239.773C152.619 241.022 152.353 241.178 152.848 239.483L155.875 235.72C156.939 234.503 156.754 234.359 155.154 234.996C154.599 234.963 154.282 234.949 153.424 235.141L150.541 237.746C149.561 238.486 149.242 238.564 149.82 237.022L150.541 235.72C150.924 234.709 150.837 234.407 149.388 234.996C148.481 235.809 148.143 236.027 148.667 234.851C149.261 234.14 149.208 233.97 148.09 234.272C146.95 235.369 146.71 235.369 147.369 233.693L147.946 232.97C148.401 232.091 148.434 231.782 147.081 232.391C146.063 233.503 145.889 233.47 146.36 232.101C146.936 231.179 146.941 230.984 146.072 231.522C145.377 231.922 145.287 231.766 145.783 230.654C147.061 229.113 147.213 228.762 145.351 230.075C144.04 231.278 143.718 231.411 144.342 230.075L144.918 227.325C144.934 226.56 144.823 226.423 144.342 226.891L143.621 227.47C142.297 228.004 142.233 227.779 143.332 226.456L144.053 226.022C144.713 225.042 144.502 224.811 143.332 224.864C141.958 225.539 141.834 225.283 142.9 223.562C143.95 223.007 144.083 222.62 143.621 221.825C143.605 220.869 143.789 220.392 144.486 219.653L146.937 216.903C147.169 216.506 147.373 216.323 147.658 216.28M162.507 229.351L162.507 229.347M162.507 229.351C162.507 229.35 162.507 229.349 162.507 229.347M148.811 215.745L154.578 215.456C160.061 214.778 163.342 214.633 170.148 215.456C173.225 214.876 175.059 214.795 178.51 215.022L186.295 215.745C188.241 215.726 188.644 215.892 187.16 216.759L183.844 217.048L178.654 217.338H175.05C173.03 217.677 171.689 217.832 168.13 217.917C165.02 217.839 163.28 217.705 160.2 217.193C155.275 217.255 152.63 217.106 148.234 216.324C148.004 216.275 147.818 216.255 147.658 216.28M148.811 215.745C148.295 215.595 148.273 215.463 149.388 215.022L153.568 213.864C154.674 213.054 154.297 213.216 154.289 213.864C154.122 214.323 154.699 214.158 155.727 213.865M148.811 215.745L147.658 216.28M155.731 213.864L156.74 212.995C157.295 212.111 157.572 212.068 158.038 212.706C157.61 213.464 158.081 213.367 159.191 212.995L160.921 210.39C162.194 207.248 161.952 208.514 161.642 210.39L161.065 212.127C160.652 212.879 161.046 212.856 162.507 212.272C163.304 212 163.7 211.709 164.381 211.114C164.773 210.559 164.994 210.758 165.384 211.108M155.731 213.864L155.727 213.865M155.731 213.864C155.73 213.864 155.728 213.865 155.727 213.865M149.676 295.643C148.571 294.564 147.716 294.037 145.927 293.182C145.244 293.473 144.909 293.75 145.207 294.63C146.833 295.664 147.764 296.066 149.388 296.511C149.883 296.497 149.918 296.285 149.676 295.643ZM186.007 292.459C186.361 291.987 186.582 291.982 187.016 292.314L187.737 293.617C187.828 294.057 187.741 294.159 187.448 294.196L183.412 296.801C182.944 296.949 182.836 296.781 182.979 295.932L186.007 292.459ZM180.961 284.787C181.228 284.442 181.43 284.502 181.826 284.787L182.979 286.814C183.164 287.38 183.057 287.56 182.547 287.682L179.231 290.867C178.685 291.129 178.429 291.169 178.077 291.011L174.473 290.143C174.091 289.851 174.206 289.693 174.761 289.419C177.344 287.954 178.7 286.938 180.961 284.787ZM97.1981 93.2938C96.7126 92.7039 96.7884 92.6253 97.6306 93.0043C101.19 96.2144 103.336 97.6603 107.722 98.9387C108.286 99.5022 108.242 99.6423 107.434 99.5177C104.505 98.9383 102.832 98.232 99.7931 96.1886L97.1981 93.2938ZM92.0079 80.1222C91.3986 78.5598 92.035 79.0034 93.3055 79.9775L97.6306 83.7408C101.363 87.223 103.507 89.0316 107.578 91.5569C108.417 91.9997 108.59 92.1765 108.011 92.2806H103.542C99.1671 90.8704 97.8534 89.7886 96.333 87.6488L92.0079 80.1222ZM243.675 95.0307C243.536 92.8288 243.314 92.8067 242.665 95.0307L241.08 99.373C239.38 104.011 237.698 106.075 233.15 108.636C229.245 109.659 227.034 109.768 223.058 109.36L220.031 108.926C219.066 109.024 218.561 109.088 218.301 109.36L216.571 110.808C216.212 111.494 216.224 111.722 216.859 111.676H219.022C224.333 112.525 226.876 113.001 229.546 113.847H231.709C236.465 113.642 238.349 112.873 240.359 110.373C242.741 105.71 243.393 102.263 243.675 95.0307ZM215.562 94.1622C217.331 93.3089 217.686 93.3221 216.138 95.0307C213.02 96.7279 211.567 96.7327 208.786 97.3466C205.319 97.6508 205.701 97.3596 208.209 96.4781L215.562 94.1622ZM211.813 71.0035C217.073 62.4483 212.822 71.293 212.822 71.293C209.198 79.4017 206.267 81.8127 197.54 88.0831C194.119 89.6485 193.513 89.669 196.243 87.2146C203.915 81.9591 206.553 79.5588 211.813 71.0035ZM218.157 61.0164C217.785 66.7474 218.104 66.4256 219.31 61.5953C219.549 56.408 219.012 53.4938 215.994 48.2791L214.408 45.0947C212.686 42.3457 212.351 42.2592 213.111 45.2395L213.687 46.8316C213.62 48.5708 213.308 48.5993 212.39 47.4106C208.11 41.1289 204.943 38.0663 198.982 32.7917C194.56 28.3099 193.633 27.6911 197.54 33.3706C204.186 43.0771 206.576 48.7063 208.065 59.1347L208.209 65.3586C207.441 72.2747 207.683 72.2213 208.93 67.385C209.916 59.8546 209.864 55.523 207.632 47.4106L206.046 43.0684C203.073 38.5731 203.065 38.1322 206.335 41.4762C208.965 44.6489 210.169 46.5842 212.101 50.1607L213.687 54.6477L214.264 57.6873C214.714 60.4183 214.968 60.3371 215.417 57.6873L215.129 53.345C214.693 50.4318 215.123 50.7288 216.571 53.2003C217.615 56.2226 217.979 57.9328 218.157 61.0164ZM201.577 52.9108C199.582 46.587 199.737 46.1299 203.019 52.6213C205.394 59.5756 205.357 63.473 203.451 70.4246C200.242 78.7469 197.244 82.7212 190.908 89.241L185.43 94.1622C180.583 97.0137 179.772 97.2489 184.853 93.0043C192.828 85.9434 196.472 81.395 201 71.872C203.336 64.5713 203.523 60.4228 201.577 52.9108ZM198.261 55.0819C197.898 49.7661 198.261 49.1475 199.559 53.7793C200.111 58.2888 200.013 60.704 198.982 64.7796L198.117 67.5297C195.821 72.195 195.691 71.9619 196.675 68.5429C198.375 63.3503 198.625 60.3977 198.261 55.0819ZM190.332 51.8976C188.748 46.7083 188.982 46.6709 191.341 51.4634C193.932 58.4869 194.212 62.7621 193.071 70.8588C191.216 77.8534 191.155 76.7767 191.629 71.872C192.383 63.611 192.174 59.2105 190.332 51.8976ZM184.565 36.555C188.873 38.7361 189.145 38.5096 186.007 35.6865C181.693 33.4656 179.101 32.3917 173.896 31.0548C168.991 30.0426 169.56 30.5135 173.32 32.2127L184.565 36.555ZM181.826 37.8576C189.2 41.1345 188.604 41.1011 180.961 38.4366L167.697 34.2391C162.479 32.5202 161.187 31.9789 167.985 33.3706C173.221 34.5297 176.221 35.3983 181.826 37.8576ZM179.375 44.371C184.456 47.4006 183.964 47.5308 178.942 45.8185C172.408 43.1815 168.551 41.9455 161.209 40.3183C153.601 37.8989 154.823 37.8814 162.363 39.1603C169.567 40.3545 173.254 41.5496 179.375 44.371ZM166.544 43.7921C162.473 41.4733 161.284 40.9329 164.67 43.7921L175.482 51.4634C179.006 54.161 179.33 54.131 176.636 51.0292C173.066 48.0576 170.878 46.4672 166.544 43.7921ZM146.504 45.529C151.946 47.076 151.831 46.7938 147.946 44.95C144.817 43.7643 142.989 43.3388 139.584 43.0684C135.143 43.0773 135.549 43.2474 139.152 43.7921C142.133 44.1227 143.767 44.4262 146.504 45.529ZM155.587 49.2923C160.777 50.5949 163.149 51.2674 154.578 50.1607L146.504 47.8448C141.024 47.3393 138.059 47.4217 132.952 48.1344L124.446 50.5949L118.824 51.1739C114.15 51.8122 112.052 52.0607 118.103 50.4502L122.572 49.1475C124.205 48.3288 124.234 48.0178 121.995 47.8448C117.555 47.7885 118.377 47.4904 121.419 46.8316H126.897L138.286 45.8185C140.672 45.9016 142.024 45.9833 144.486 46.2527C146.948 46.5221 150.397 47.9896 155.587 49.2923ZM162.219 54.7924C169.246 57.5752 171.3 58.5325 160.633 55.6609L149.82 53.6345C145.788 52.4375 143.181 52.3392 138.431 52.3318H130.069C124.281 52.9465 115.796 54.2135 115.796 54.2135C115.796 54.2135 109.834 54.5199 105.848 53.7793C101.458 52.7589 101.629 52.5801 106.281 52.9108H113.057L121.851 51.7529C128.672 51.2297 132.474 50.9937 139.007 51.1739C143.128 51.2275 145.369 51.4813 149.243 52.3318L162.219 54.7924ZM99.3606 54.6477C95.7519 51.3662 95.9592 51.3423 99.3606 53.7793C103.432 55.9782 105.733 57.083 110.029 57.6873L132.376 61.4506C139.261 63.0488 143.003 64.3621 149.243 68.2534C155.822 73.2243 156.284 73.8324 148.09 68.8324L141.17 65.5033C137.162 63.9659 135.229 63.3335 132.52 62.7533L123.293 62.0295C115.534 61.0398 111.787 60.2553 106.281 58.411L99.3606 54.6477ZM154.578 57.3978C148.067 55.598 148.529 55.2976 154.578 55.6609C161.097 57.3546 164.034 59.2784 168.706 63.477L173.176 68.8324C176.325 75.2361 176.284 75.6479 173.896 72.3062C171.753 68.714 170.333 66.7911 166.832 63.7664C163.05 60.8766 160.774 59.3188 154.578 57.3978ZM132.087 56.5293C125.196 56.4867 124.031 56.627 130.501 57.3978C138.075 58.1727 142.44 58.494 149.243 60.0032C156.727 61.7049 160.386 63.5721 166.111 68.2534C170.627 72.7241 170.238 71.9735 166.111 66.806L164.237 65.2139C159.073 61.5653 155.734 60.0623 148.811 58.5557L132.087 56.5293ZM105.127 59.7137C102.186 57.9284 101.232 57.4961 103.542 60.0032L110.029 64.4902C113.804 66.4877 116.102 67.1169 120.554 67.385C126.893 67.3457 126.523 67.0684 120.554 66.2271C116.74 65.7837 114.984 65.133 112.048 63.7664L105.127 59.7137ZM129.348 63.3322C123.137 62.5119 122.062 62.5566 126.897 64.0559L139.872 69.4114C148.169 72.9663 152.573 75.5613 159.624 82.1487C163.68 85.9635 165.252 88.8649 166.4 95.6097C166.743 101.651 166.987 102.348 167.553 98.215C167.427 93.5381 167.319 90.9713 165.823 88.3726C160.551 79.9881 156.253 76.6754 147.658 71.7272L129.348 63.3322ZM111.038 72.1615C114.336 74.4111 113.055 74.23 110.75 73.8984L103.109 71.7272C98.8489 69.9913 98.1477 69.5075 103.542 70.5693L111.038 72.1615ZM113.633 78.5301C113.37 74.3838 113.573 74.0297 114.643 77.3722C115.354 80.5084 115.895 82.1905 117.67 84.754C120.937 89.0745 123.031 91.1703 127.474 94.0175C129.812 95.9321 130.348 96.5054 126.32 94.307C121.958 91.9978 120.055 90.1287 116.949 86.4909C115.353 83.7427 114.667 81.9519 113.633 78.5301ZM119.544 83.0171C118.089 79.6213 118.406 79.7379 120.121 82.0039L124.158 87.7936L129.925 93.2938C131.919 95.3713 131.351 95.1349 128.627 93.2938C126.338 91.665 125.064 90.6667 122.86 88.2278L119.544 83.0171ZM173.896 88.3726C174.467 81.1852 174.344 80.4195 173.176 86.0567L170.869 95.1754L169.571 99.6624C168.469 104.908 168.577 105.495 170.581 100.676C172.361 96.1585 173.019 93.4244 173.896 88.3726ZM179.231 76.7932C179.194 71.4609 179.268 69.415 180.384 75.6353V81.7144C179.668 87.0279 178.839 89.4984 176.492 92.8596C172.344 99.0204 172.063 98.8289 175.626 91.2674C178.049 86.7603 178.786 83.5315 179.231 76.7932ZM106.857 150.756C107.881 154.036 107.539 154.047 106.137 152.493L104.695 150.756C103.049 148.933 102.078 148.369 100.226 148.296C99.5263 148.13 99.2047 148.16 98.9281 148.73V150.612C99.2974 151.133 99.4097 151.5 99.3606 152.348V156.98C99.3864 160.451 99.4984 162.358 99.9373 165.665C100.584 168.621 101.08 170.202 102.677 172.612C104.791 174.351 104.976 174.027 103.109 170.586L101.667 166.388C100.94 163.483 100.725 161.776 101.091 158.428L101.956 153.217C102.129 152.181 102.406 152.278 103.109 153.217L104.262 155.099C105.769 156.634 106.432 157.615 107.29 159.586V161.178C107.354 161.821 107.304 162.153 106.857 162.625L104.695 164.796C103.977 165.122 103.754 165.363 103.83 165.954L105.127 168.27C105.456 168.854 105.726 168.907 106.281 168.56L107.29 167.402C107.903 166.82 108.175 166.69 108.155 167.836L108.587 171.454C109.229 176.707 109.705 179.577 111.327 184.192C111.769 185.166 111.438 185.351 110.318 185.35C108.809 185.355 108.063 185.039 107.002 183.613L104.262 179.705L99.9373 171.31C98.1933 166.211 97.7065 162.942 97.3422 156.691V148.73C97.3308 146.721 97.7726 145.697 99.5048 144.098C100.505 143.709 100.971 143.726 101.667 144.098C103.557 145.601 104.674 146.912 106.857 150.756ZM119.4 151.191C116.641 153.422 116.229 154.164 120.554 153.217L127.185 153.362L132.376 154.23L139.728 155.678C140.71 156.045 140.677 156.201 139.728 156.401L137.854 156.546C135.397 156.764 133.972 157.136 131.366 158.138L127.33 160.309C126.245 160.642 126.06 160.923 126.609 161.612L128.05 163.059C128.503 163.347 128.79 163.365 129.348 163.204L130.79 162.046C131.398 161.601 131.712 161.615 132.376 162.046L135.403 163.783C137.305 163.906 137.105 163.634 136.412 163.059L133.673 161.322C133.098 160.92 133.144 160.699 133.817 160.309L136.989 158.862C137.973 158.651 138.373 158.636 138.286 159.151L138.863 160.599C140.634 162.743 141.736 163.658 144.486 163.204C146.898 162.076 147.685 161.204 147.946 159.151C147.976 158.407 148.208 158.432 148.955 159.151L151.55 161.612C152.074 162.397 152.057 162.688 150.829 162.625L149.532 162.915C149.047 163.525 149.066 163.735 149.82 163.783H151.406C152.069 163.669 152.434 163.633 152.992 163.928L155.01 165.375C155.853 166.061 156.215 166.028 156.596 164.941C157.057 164.287 157.061 163.799 156.74 162.77L155.875 161.612L153.713 159.441C153.339 158.631 153.943 158.805 155.443 159.441L157.461 160.888L160.921 164.507C161.5 165.365 161.571 165.945 161.354 167.112C161.256 168.498 161.6 168.307 162.507 167.257L162.94 165.665L163.084 162.915C162.806 161.03 162.402 160.093 160.777 158.862C160.049 158.37 159.893 158.061 160.344 157.414L160.777 156.401C161.065 155.414 161.109 154.815 160.921 153.651C160.271 153.159 159.991 153.07 159.768 153.506V153.941C159.395 154.759 159.201 154.782 158.903 153.651C158.869 153.18 158.812 152.98 158.614 152.783L157.894 152.638L154.001 152.059L141.17 148.875C137.614 148.032 135.593 147.297 131.943 145.546H130.069C125.691 146.908 123.388 148.276 119.4 151.191ZM143.909 158.283C142.756 158.283 142.756 160.02 143.909 160.02C145.062 160.02 145.062 158.283 143.909 158.283ZM228.681 153.796C227.996 157.816 228.667 157.042 230.411 154.085C231.98 151.59 232.882 150.236 234.736 148.296C236.749 146.867 237.191 147.008 236.899 148.73C236.576 153.357 236.315 155.955 235.601 160.599C234.832 164.298 234.236 166.298 232.862 169.718C231.262 171.851 230.887 171.977 231.709 169.139L233.294 164.796C234.603 160.611 234.795 158.342 234.592 154.375C234.402 151.424 233.915 151.134 231.997 154.375L229.69 158.283C228.476 161.94 228.241 163.622 229.69 165.086C230.311 166.556 230.312 167.345 229.69 168.704L228.249 171.165C227.423 172.445 227.176 172.523 227.239 171.165C227.34 168.026 227.131 168.238 226.23 172.612L224.068 182.455C223.432 185.039 224.073 185.126 226.23 183.902C228.527 181.808 229.713 180.405 231.42 176.955C234.306 172.565 235.403 169.782 236.61 164.362L237.908 155.678L238.34 148.151C238.628 146.126 238.533 145.204 237.187 144.532C235.778 143.748 234.988 143.672 233.583 144.967C230.65 147.399 229.449 149.205 228.681 153.796ZM175.915 186.942C175.701 187.213 175.577 187.22 175.338 186.942V182.165V175.652V167.402L175.626 165.954L177.645 160.599C177.905 159.978 177.982 159.678 177.068 159.875L175.482 160.165C174.29 159.87 173.701 159.462 173.031 157.559V154.664C173.614 153.7 173.789 153.886 174.041 154.52L175.194 156.98C176.012 157.852 176.147 157.587 176.203 156.691L176.059 154.085C175.981 153.501 176.156 153.359 176.78 153.362C182.129 152.86 185.103 152.416 190.332 151.191C196.756 149.728 200.31 148.694 206.479 146.125C207.348 145.457 207.784 145.368 208.497 145.546C213.783 148.106 216.55 149.656 220.607 152.927C221.392 153.946 221.36 154.28 220.031 154.23C217.799 153.294 216.125 153.141 212.246 153.651L201 155.678C199.59 156.115 199.946 156.188 201 156.257C205.536 157.316 207.81 158.151 210.948 160.454C211.59 160.979 211.73 161.266 211.236 161.757L210.371 162.625C209.817 162.99 209.481 163.076 208.786 162.77L207.921 161.901C207.277 161.477 206.922 161.336 206.335 161.901L205.037 162.77C204.633 163.149 204.491 163.427 203.307 163.204C202.967 162.941 202.741 162.946 202.298 163.204L201.433 163.494C200.289 163.779 199.705 163.905 200.424 163.059L204.316 161.178C205.003 160.628 205.028 160.401 204.316 160.165L201.433 159.007C200.707 158.668 200.356 158.554 200.424 159.296C200.276 160.213 200.385 160.732 199.559 161.612C198.172 162.897 197.065 163.512 194.657 163.204C192.171 162.346 191.131 161.449 190.476 158.428C190.22 157.98 190.041 157.922 189.611 158.428L186.583 161.178C186.227 161.789 186.299 162.007 186.872 162.191L189.034 163.059C189.667 163.742 189.636 163.895 188.89 163.783H185.863C185.435 163.729 185.164 163.763 184.565 164.073L182.402 165.086C181.126 165.571 180.983 165.099 181.537 163.204C182.945 161.648 183.759 160.841 185.286 159.586C185.832 158.825 185.717 158.688 184.277 159.296L182.691 160.165L180.24 162.336L177.645 165.954C177.118 166.574 176.86 167.034 176.491 168.125V172.612L175.915 178.402V186.942ZM178.942 224.575V223.851C178.99 223.406 179.126 223.427 179.519 223.851V224.575C179.218 225.05 179.087 225.103 178.942 224.575ZM158.47 223.417C157.852 223.25 157.596 223.269 157.461 223.706L157.317 224.285C157.367 224.85 157.675 224.837 158.182 224.864C158.251 224.831 158.228 224.639 158.182 224.285C158.547 223.682 158.598 223.504 158.47 223.417Z" stroke="black"/>
<path d="M195.666 158.283C194.801 158.283 194.513 159.73 195.666 159.73C196.82 159.73 196.531 158.283 195.666 158.283Z" fill="white" stroke="black"/>
<path d="M164.381 312.433C165.057 311.892 165.436 311.933 166.111 312.433V330.381H161.642C162.163 325.414 162.654 322.66 163.804 317.788L164.381 312.433Z" fill="#D9D9D9" stroke="black"/>
<circle cx="173.5" cy="173.5" r="172.5" stroke="black" stroke-width="2"/>
</svg>
