<svg width="107" height="107" viewBox="0 0 107 107" fill="none" xmlns="http://www.w3.org/2000/svg">
<path fill-rule="evenodd" clip-rule="evenodd" d="M74.8599 39.8681C75.299 37.8751 75.4914 36.5114 75.789 33.8717C75.7766 33.8676 75.7386 33.8685 75.6563 33.8717H75.3908C75.2142 33.841 75.1793 33.8702 75.1696 33.9605C74.5303 34.7712 74.0836 35.0743 73.046 35.2042H71.4975C70.4078 35.0245 69.8039 34.899 68.7545 34.5823H67.9581C67.7649 34.5479 67.6673 34.5416 67.6484 34.7156V35.1598C67.6136 35.2818 67.6143 35.3299 67.6927 35.3375L68.5333 35.604L70.9224 36.4035L72.7363 36.5812C73.5631 36.8903 73.6132 36.9789 72.7363 36.9365C71.9536 36.8863 71.5166 36.8452 70.7454 36.7144C69.7843 36.294 69.1969 36.0985 68.0024 35.8705L67.9891 35.869C67.7965 35.8477 67.6847 35.8353 67.6484 36.0037L67.5599 36.67C67.5448 36.8998 67.5706 36.9719 67.6927 36.9809L68.4005 37.0698L70.0817 37.6472L71.9399 38.3579C73.3168 39.262 73.3606 39.3614 71.8072 38.6244L70.3914 38.0469L67.7369 37.2918C67.5447 37.2796 67.4681 37.2957 67.6484 37.5583L67.9581 37.8693C68.0478 38.0555 68.0409 38.1072 67.9139 38.0914H67.7811C67.5956 38.1665 67.5447 38.2127 67.6927 38.3135L68.8872 38.6688L70.2587 39.3795L72.1611 40.4899C72.9746 41.1942 73.2539 41.4677 71.9399 40.712L71.0993 40.179L69.9048 39.4683L68.4005 38.7576C68.0882 38.6503 67.9916 38.629 67.9581 38.6688C67.7839 38.9035 67.7515 39.0468 67.8696 39.3351L68.3563 39.646L69.9048 40.712L71.3648 41.9557C71.9821 42.5466 71.8757 42.5342 71.1878 42.1334L70.303 41.4227C69.4362 40.6235 68.9815 40.2417 68.3563 39.9569C68.1101 39.9201 67.997 39.9144 68.1793 40.1346C69.4896 41.2687 69.926 42.0515 70.0375 43.7769L70.1702 46.664L70.1669 47.0056C70.1517 48.6229 70.1423 49.6282 69.8163 51.2391C69.6335 52.5291 69.4998 53.2498 69.1526 54.526L68.5333 56.6136L67.9139 58.6568C67.8629 58.7787 67.8322 58.8335 67.7369 58.6568L67.7193 58.6257C67.6126 58.4366 67.5474 58.3213 67.5599 58.6124V59.101C67.5166 59.16 67.5172 59.1991 67.5599 59.2787L67.7811 59.6785C67.787 59.9224 67.7573 59.9603 67.6042 59.7229L67.4714 59.3675C67.3217 59.1979 67.2836 59.2217 67.2945 59.5008V59.9006C67.2798 60.1317 67.2521 60.2594 67.1175 60.478V61.1443C67.0284 61.3031 66.9879 61.3205 66.9405 61.1443V60.9666C66.7227 60.6518 66.6231 60.5557 66.6308 61.0554L66.4981 61.9438C66.4676 62.2003 66.4416 62.2941 66.3211 62.0326L66.2327 61.7217C66.0257 61.548 65.94 61.5064 65.9672 61.7661V61.9438V61.9882L65.8787 62.2547C65.8127 62.3488 65.777 62.4579 65.746 62.7433V63.4096C65.5572 63.6277 65.4756 63.6988 65.5248 63.4096L65.6133 62.6545C65.5856 62.5069 65.5681 62.4305 65.4363 62.61C65.2018 62.9069 65.1149 63.0809 65.0381 63.4096L64.9939 64.6977L64.9937 64.7129C64.9912 64.9611 64.9897 65.1049 64.8169 64.7421L64.6399 64.0758C64.5316 63.8529 64.4797 63.7729 64.463 64.0314L64.5072 65.4972C64.4364 65.6551 64.3911 65.7006 64.286 65.586L64.109 65.2307C63.9134 65.0504 63.8371 65.0011 63.9321 65.2751L64.0205 66.2523C64.0536 66.4425 64.061 66.5297 63.9763 66.5188H63.6224C63.0504 66.1405 62.7478 65.9054 62.3393 65.3195C62.0268 64.5067 61.7719 64.0799 61.189 63.3651C60.9135 63.1893 60.8507 63.1837 61.0121 63.454L61.1448 63.7649C61.1075 63.9533 61.0657 63.9765 60.9236 63.7649C60.3482 63.3624 60.0213 63.1626 59.4193 62.921C59.1453 62.8414 59.0708 62.8478 59.2424 63.0542C59.2474 63.2627 59.1887 63.2515 59.0212 63.0986L58.0921 62.388C57.7612 62.255 57.6828 62.2675 57.8266 62.5212L58.0478 62.8321C58.1432 63.0828 58.1256 63.1379 57.8708 62.9654L57.0302 62.2991C56.8864 62.2435 56.8246 62.2265 56.8533 62.2991L56.8975 62.5656C56.8739 62.6703 56.8569 62.7196 56.7648 62.6545L55.3048 61.8105C55.1141 61.684 55.1296 61.6156 55.3933 61.4996H55.7915C55.8892 61.464 55.9824 61.4326 56.0717 61.4026L56.072 61.4024C56.7177 61.1853 57.1552 61.0381 57.5612 59.8561C57.682 59.1454 57.5851 58.7184 57.0745 57.9017C56.79 57.7246 56.6602 57.664 56.7648 57.9906C57.1809 58.8061 57.3446 59.2383 57.2072 59.8561C56.8576 60.6549 56.4758 60.9226 55.3933 61.011C55.1155 60.9565 54.9656 60.9319 54.9066 61.0998C54.9027 61.6719 54.7873 61.919 54.2872 62.1659C53.5727 62.595 53.1949 62.6825 52.5618 62.5656C52.0644 62.3456 51.7921 62.1939 51.323 61.8549C51.2781 61.7629 51.2693 61.7132 51.323 61.6328C51.527 61.4137 51.5374 61.296 51.323 61.0998C50.047 60.8353 49.5534 60.6585 49.0224 60.3003C48.6981 59.8212 48.6472 59.4939 49.0224 58.7013C49.1716 58.4194 49.2175 58.2535 49.2436 57.9462C49.2211 57.7401 49.1984 57.6474 48.9339 57.9906L48.58 58.5236C48.1684 59.6069 48.1812 60.1048 48.7569 60.7445C49.3757 61.2033 49.7926 61.3961 50.7478 61.544C50.953 61.641 51.0493 61.6916 50.9248 61.7217L50.3496 61.8994L49.1551 62.5656C48.7961 62.6693 48.6487 62.7001 48.9339 62.4768C48.9693 62.3071 48.9021 62.3048 48.6242 62.4768C48.0871 62.7425 47.7943 62.9629 47.2969 63.4984C47.1395 63.6641 47.0982 63.6756 47.1642 63.454L47.4739 62.8321C47.5661 62.555 47.5211 62.5121 47.2527 62.6545L45.5272 63.5872C45.3264 63.6465 45.2365 63.6645 45.4387 63.454L45.7927 63.1431C45.8628 62.9953 45.8454 62.9585 45.6157 63.0542C44.5988 63.4235 44.1829 63.7839 43.6248 64.6088C42.973 65.5177 42.5089 65.9196 41.3685 66.2967C41.1207 66.3692 41.0502 66.3591 41.103 66.2079C41.3071 65.8495 41.3949 65.6531 41.4569 65.3195C41.452 64.9617 41.4116 64.8866 41.2357 65.0974L40.926 65.5416C40.7502 65.6187 40.7145 65.5859 40.7491 65.4084C40.9279 64.8833 41.0097 64.6071 41.0145 64.2535C40.965 63.9583 40.936 63.8037 40.8375 63.987L40.6606 64.3423C40.5551 64.5937 40.5133 64.6469 40.5278 64.2979L40.3951 62.8321C40.1336 62.5213 40.0237 62.4392 40.0412 62.8321V64.0758C39.9237 64.4511 39.8719 64.5524 39.8642 64.0758V63.1875L39.6872 62.0326C39.5445 61.6965 39.4684 61.6883 39.3775 61.9882L39.3333 62.8765C39.2555 63.0324 39.2151 63.037 39.1563 62.8765V62.2991L39.1561 62.2896C39.1505 62.0881 39.1473 61.9723 39.0236 62.077C38.8449 62.1468 38.7751 62.1521 38.8466 61.9438V61.5884C38.644 61.3852 38.5615 61.226 38.5812 60.7001C38.4598 60.5475 38.4045 60.4906 38.4042 60.6112V60.8777C38.2921 61.1533 38.2497 61.1673 38.2272 60.8333L38.2715 60.1671C38.1649 59.8253 38.1073 59.8261 38.006 60.0782L37.9618 60.4336C37.7916 60.5536 37.7097 60.5999 37.7848 60.3447L37.9618 59.8117C37.972 59.5988 37.952 59.4867 37.7848 59.3231L37.8291 58.8345C37.8208 58.8142 37.8131 58.7942 37.8058 58.775L37.8057 58.7749C37.7501 58.6297 37.7127 58.5319 37.5636 58.7013L37.4751 58.9678C37.3636 59.0589 37.3092 59.081 37.2539 58.9678L36.723 56.8801C35.9927 54.3143 35.6699 52.8359 35.44 50.0398L35.4438 49.7053C35.4653 47.8325 35.4784 46.6848 35.7054 44.6652C35.8644 43.2752 35.9754 42.5098 36.546 41.3783C36.9403 40.6884 37.2245 40.3125 38.006 39.6904C38.0641 39.5083 38.0686 39.4349 37.8291 39.5572L37.1212 39.9569L35.7939 40.8897L34.5994 42.1778C34.277 42.4122 34.1813 42.4418 34.4224 42.0001L34.9975 41.2006C35.9367 40.2838 36.489 39.8189 37.6521 39.3351C37.8878 39.2445 37.9659 39.1772 38.006 39.0241V38.3135C38.0043 38.2161 38.019 38.1696 38.1388 38.1358L38.2715 38.0914C38.3763 37.9058 38.3955 37.8283 38.2272 37.8249L37.8291 37.8693C36.4004 38.3844 35.6202 38.8322 34.2897 40.0902L33.2279 41.245C32.9253 41.5174 32.8201 41.5759 33.0509 41.0674L34.1569 39.8237C35.0251 39.0425 35.5157 38.6239 36.4133 38.0025L38.006 37.4251C38.2598 37.3413 38.3493 37.2766 38.36 37.1142V36.7588C38.3505 36.602 38.2912 36.5729 38.0503 36.67L36.4575 37.3363C35.1185 38.02 34.3026 38.7608 32.8297 40.179C32.4302 40.656 32.3833 40.6531 32.6969 40.0458L32.6993 40.0427C33.3281 39.2393 33.6813 38.788 34.5109 38.0914L36.5903 36.8032L38.183 36.137C38.3368 36.0297 38.3836 35.9278 38.4042 35.826C38.4024 35.6744 38.3859 35.6195 38.3157 35.604L38.0503 35.6484L36.1479 36.4479C34.5233 37.061 33.6777 37.6748 32.2545 39.113C32.0354 39.2747 31.9586 39.3001 32.0776 38.9797C32.6342 38.1846 32.9737 37.7784 33.7145 37.2474C35.3133 36.3089 36.2377 35.8451 38.0503 35.3819C38.2328 35.3281 38.2844 35.2798 38.2715 35.1598V34.76C38.2797 34.6236 38.264 34.5616 38.0503 34.5823L37.1654 34.6268C35.5839 34.9322 34.5433 35.4572 32.4315 36.9809L32.4062 36.9943C32.1199 37.1463 31.9521 37.2354 32.2988 36.8032L33.7145 35.4263C34.4576 34.8201 34.9229 34.541 35.9709 34.3158L37.6078 34.227C38.0722 34.2301 38.2858 34.2192 38.2715 34.0938C38.1738 33.7819 38.0271 33.6517 37.4751 33.5607L33.7588 33.8272C33.0211 33.8191 32.5948 33.9764 31.8121 34.5379C31.6371 34.613 31.5715 34.6147 31.5909 34.4491C31.8233 33.8788 32.0132 33.6002 32.6969 33.3386L37.9618 33.2942C38.1953 33.3207 38.2507 33.3077 38.1388 33.2054C37.9295 32.9979 37.7026 32.8991 37.0769 32.7612C36.8589 32.6293 36.8336 32.569 37.0327 32.4947C37.9098 32.3666 38.4027 32.3145 39.2891 32.317C39.5426 32.2912 39.5661 32.2514 39.4218 32.1394C39.0935 31.8756 38.8241 31.7728 38.2272 31.6508C37.8231 31.493 37.6929 31.424 38.3157 31.4731L40.3951 31.6508C41.6993 31.7803 42.393 31.9 43.5363 32.2282C43.8996 32.2811 43.9897 32.2637 43.7133 32.0505L43.1381 31.7396C42.8107 31.5418 42.7587 31.4778 43.2266 31.5619L43.8018 31.6952L46.2794 32.1394C46.5654 32.1591 46.6292 32.1302 46.4563 31.9617L45.5715 31.4731C45.3824 31.3253 45.4165 31.2933 45.7042 31.3398L46.2351 31.4731C46.8482 31.5721 47.1737 31.6671 47.6951 31.9617L49.2878 32.5391C49.5737 32.6487 49.601 32.6258 49.509 32.4947L48.8454 31.784C48.6835 31.5084 48.7082 31.466 49.0666 31.6952L50.6151 32.7612C50.8405 32.8569 50.9026 32.8423 50.8363 32.628L50.3939 31.8729C50.2887 31.6828 50.2858 31.6224 50.6593 31.8284L52.7387 33.2498C52.9345 33.3822 53.0401 33.3734 53.2254 33.2942L54.5969 32.0505C54.7779 31.9688 54.8533 31.9503 54.8181 32.0949L54.5969 32.4503C54.589 32.6232 54.6394 32.6216 54.7739 32.5391L55.6587 31.6952C55.8551 31.4957 55.8903 31.5053 55.8357 31.7396L55.1721 32.7168C55.0845 32.9321 55.1262 32.9695 55.349 32.8945L57.8708 31.251C58.0926 31.1667 58.1326 31.1868 58.0036 31.3843L57.4727 31.9173C57.2191 32.3195 57.2877 32.3494 57.6939 32.1394L60.0387 31.251C60.3247 31.1508 60.406 31.1592 60.3484 31.3398L59.6848 31.8729C59.5509 32.0899 59.5247 32.1695 59.729 32.0949C60.5032 31.705 60.9377 31.538 61.7199 31.3398C61.9837 31.2975 62.0581 31.3094 61.8969 31.4731L61.1448 31.8729C61.0055 32.0528 61.0359 32.0848 61.2333 32.0505L63.3127 31.5175L65.0381 31.0289C65.4197 31 65.4972 31.0173 65.1708 31.1622L64.7284 31.3843L63.6224 31.8729C63.4811 32.075 63.4323 32.1661 63.6666 32.0949L64.9054 31.8284C65.4791 31.5882 66.0767 31.4975 68.0024 31.4731C68.2942 31.5718 68.3728 31.6181 68.0466 31.6508C67.3593 31.729 67.0424 31.8043 66.7193 32.0505C66.5552 32.2636 66.586 32.305 66.8078 32.2726L68.6821 32.4137C68.8955 32.5179 68.8859 32.5642 68.7102 32.628L68.1351 32.7168C67.8583 32.8236 67.8073 32.8713 67.8696 32.9389C68.0963 33.1408 68.2537 33.2045 68.5775 33.2498H70.5684L72.5151 32.7168C73.3838 32.2747 73.7836 31.7556 74.4175 30.5847C75.0737 29.4249 75.4058 28.7449 75.8775 27.4311C75.899 26.9939 75.8534 26.9353 75.612 27.3422L75.3023 27.9197C74.5008 28.885 73.9263 29.3108 72.6478 29.8296L70.7011 30.5847C70.316 30.6129 70.2198 30.5937 70.5684 30.4071C72.1767 29.783 73.0438 29.3987 74.2405 28.3638C74.9655 27.4872 75.2835 26.9192 75.6563 25.7432L76.0545 23.4335C76.0851 23.016 76.0823 22.8619 75.9217 23.2114L75.5236 23.9221L74.1963 26.5871C73.4911 27.6314 73.0091 28.1299 71.8514 28.7192L71.7987 28.7414C71.6002 28.8254 71.4738 28.8788 71.763 28.5859C72.8553 27.7069 73.3763 27.1218 74.0636 25.832C74.1809 25.5233 74.2076 25.4042 73.8563 25.7432L73.3557 26.1874C72.4688 27.0182 71.9268 27.4304 70.7896 27.9641L69.1969 28.5859C68.9538 28.5887 68.85 28.5763 69.1084 28.3638C70.163 27.933 70.733 27.6556 71.6745 27.0313C72.9593 26.0439 73.6357 25.4057 74.6387 23.8776C75.2331 22.8019 75.4672 22.0633 75.612 20.3686L75.5678 17.7924C75.4508 17.6339 75.394 17.5902 75.3466 17.7924C74.9375 18.9621 74.5683 19.4166 73.4884 19.8356C73.2854 19.8203 73.2124 19.8909 73.223 20.0577L73.2672 21.257C73.1372 22.6841 72.8263 23.4794 71.8072 24.8992C71.7143 25.1197 71.7166 25.1717 71.8957 25.0325L73.0017 23.8776C73.7039 22.8234 74.0745 22.2189 74.5502 21.0349C74.6842 20.7254 74.73 20.7544 74.7714 21.0793C74.4491 22.1893 74.223 22.7827 73.6654 23.7444C72.5548 25.128 71.897 25.8647 70.3914 26.8092C70.1295 26.8955 70.0015 26.9304 70.2145 26.676L70.9666 25.7432C72.3022 23.6297 72.6447 22.3938 72.9133 20.1465C72.9767 18.683 72.7983 17.9156 72.1169 16.6375C71.7649 16.2102 71.7356 16.2597 71.8514 16.6375C72.192 17.5813 72.292 18.154 72.2054 19.3026C71.8619 21.4523 71.6066 22.6689 70.0817 25.0325C68.197 27.0887 67.03 27.9465 64.5514 28.4083L62.826 28.4971C62.3911 28.4117 62.2219 28.3606 62.826 28.2306L64.463 28.0085C67.2816 27.2584 68.4571 26.3699 70.0375 24.1886C71.3191 21.9339 71.6693 20.6996 71.6745 18.5475C71.5666 17.163 71.2953 16.4298 70.3472 15.2161C70.1425 15.0743 70.0519 15.023 70.1702 15.2606L70.5242 16.6375C70.9209 18.3404 70.9451 19.2478 70.5684 20.7684C69.729 22.6958 69.1079 23.6584 67.5599 25.0325C65.9307 26.3394 64.9522 26.8268 63.1357 27.4311C62.8049 27.5325 62.7115 27.5363 63.0472 27.2534L64.9496 25.832C66.2456 24.6205 66.951 23.8936 68.0466 22.2342C68.7556 21.2746 69.0168 20.5227 69.1084 18.5919C69.0183 17.06 68.9033 16.27 68.489 15.0829C68.3547 14.6234 68.3594 14.5408 68.6217 14.9496L69.1969 16.3266C69.4776 17.8772 69.5454 18.773 69.3739 20.4575C69.1562 21.7886 68.7838 22.5041 67.8254 23.7444C67.6781 23.9689 67.7152 23.9812 67.9139 23.8776L68.843 23.0337C69.6046 22.1731 69.9459 21.5025 70.2145 19.7024C70.1962 18.0698 70.0819 17.1636 69.5951 15.5715C69.0565 14.0324 68.4741 13.3592 67.1175 12.3734L64.0648 10.419L62.2066 8.95322C61.2719 8.14863 60.7886 7.65851 60.2599 6.46582C60.1097 6.05246 60.0289 5.81385 59.9945 5.1777C59.9945 5.1777 59.843 4.89284 59.7733 5.04445C59.6273 5.70253 59.5977 6.08401 59.5963 6.77674C59.7214 8.07029 59.8213 8.74022 60.2157 9.53065C60.31 9.74449 60.2852 9.79633 60.0387 9.70833C58.9412 9.17297 58.2786 8.90822 56.9418 8.55346C55.7085 8.24813 54.832 8.1229 52.9599 7.97603C52.0795 7.86008 51.5853 7.74627 50.7036 7.48743L48.9781 6.86558C48.5623 6.86203 48.5315 6.91673 48.8897 7.13209L50.1727 7.84278C51.1567 8.334 51.7166 8.54194 52.7387 8.73113C52.9357 8.87734 52.9567 8.92445 52.7387 8.90881L48.1818 8.86439C47.4501 8.78712 47.0352 8.71904 46.2794 8.50905C45.8472 8.48069 45.7068 8.49233 46.1024 8.68672L46.9872 9.08648L48.58 9.886L49.8187 10.5967C50.0093 10.7743 49.9845 10.8059 49.5975 10.6855L48.6242 10.3302C48.0497 10.0567 47.6212 9.96863 46.589 9.97484C45.439 10.0668 44.7762 10.1902 43.5363 10.6411L41.6339 11.2185L39.466 11.796C39.0782 11.9817 39.1308 12.0049 39.466 11.9736L40.6606 11.8848L43.2266 11.5739L45.6157 11.485C45.8684 11.6129 45.8976 11.6615 45.7484 11.7071L44.3769 11.8404C42.3643 12.0649 41.2093 12.2754 39.1121 12.7732C37.3893 13.1222 36.4653 13.1011 34.8648 12.8176L33.2279 12.2846C32.9766 12.2047 32.925 12.2401 33.0066 12.4622L33.4933 13.1285C34.1342 13.8264 34.504 14.1878 35.263 14.5499C35.2938 14.5932 35.321 14.6284 35.343 14.657C35.4241 14.7622 35.4359 14.7776 35.3072 14.772H34.9091C33.8891 14.7656 33.3176 14.7367 32.2988 14.5943C30.8031 14.4103 29.9818 14.1668 28.5824 13.2173C28.3329 12.9545 28.268 12.9531 28.317 13.2618C28.7813 14.5936 29.0604 15.2632 29.6442 16.1045C30.9685 17.807 31.7912 18.5823 33.4933 19.4358C33.6608 19.5712 33.7032 19.6336 33.4491 19.6579L32.3872 19.7912L29.2018 19.88L27.6976 19.5691C27.3237 19.5742 27.21 19.5938 27.4321 19.7023C27.7973 19.8336 27.9845 19.9273 28.2727 20.1465C29.2687 20.9872 29.8434 21.3986 30.9273 21.9232L33.0509 22.9893C33.217 23.2493 33.1913 23.3212 32.8297 23.2558L31.3254 22.5895C31.0988 22.448 30.9852 22.3864 31.0157 22.5895L31.1042 23.1225C31.1073 23.318 31.0592 23.3286 30.9273 23.2558L28.8921 22.0121C28.6029 21.8179 28.5126 21.7965 28.6709 22.1453L28.8921 22.4118C29.84 23.4747 30.5063 24.018 32.0333 24.8548L35.1745 26.4094C35.327 26.6949 35.2839 26.7396 34.9975 26.6315C33.4396 26.1376 32.5981 25.757 31.1927 24.766C30.7684 24.4637 30.7229 24.4684 30.9715 24.766C32.3192 26.1565 33.0749 26.9356 34.5994 27.7864C35.8257 28.6472 36.5259 29.09 37.8733 29.5631C38.0416 29.7142 38.038 29.7627 37.7406 29.7408L36.9 29.5631C35.8948 29.2366 35.1873 29.1248 33.7145 29.0301C32.319 28.789 31.6799 28.3594 30.6618 27.3422C30.522 27.1778 30.4491 27.1134 30.3521 27.1646C30.4744 27.9185 30.5718 28.3231 30.8388 28.9857C31.3151 29.8282 31.6805 30.2178 32.5642 30.718C33.4594 31.1987 33.9834 31.4094 34.9533 31.6952C35.173 31.8969 35.1466 31.9376 34.9091 31.9173L33.626 31.6508C32.9286 31.4145 32.5308 31.2327 31.8121 30.8068C31.1147 30.3162 30.7791 29.9474 30.3079 29.0745C30.1309 28.8255 30.0566 28.7533 30.0424 28.9413C30.1038 29.6028 30.1481 29.9732 30.3079 30.6292C30.4507 31.3382 30.6597 31.7067 31.6351 32.2282C32.4396 32.6193 32.9999 32.7605 34.2897 32.8056C34.5109 32.85 34.4601 32.9557 34.2897 32.9833H33.2721C32.6569 32.9749 32.3027 32.9466 31.6351 32.8056C31.1249 32.6615 30.855 32.4737 30.3963 31.9617C30.2688 31.7937 30.1986 31.7021 30.1751 31.784L30.3963 33.2498C30.575 35.3097 30.686 36.4406 30.9273 38.3579C31.2438 40.8307 31.4019 41.9821 31.5909 42.9329L31.7236 43.688C30.9423 44.0566 30.731 44.4068 30.6176 45.1982V48.2631C30.7873 50.1905 30.923 51.1915 31.3697 52.5716L32.6969 55.3255C33.0894 56.178 33.3218 56.5949 33.803 57.0134C34.5329 57.5749 34.8308 57.6358 35.2188 57.4132C35.3552 57.3676 35.3997 57.4163 35.44 57.5908L35.8382 59.5008L36.7672 64.6089L36.819 64.8746C37.0896 66.2645 37.2563 67.1209 37.6521 68.0734C37.6589 68.0902 37.6652 68.1062 37.6709 68.1217C37.7244 68.2664 37.7274 68.3609 37.6521 68.5176L35.7497 71.1827C34.5339 72.6721 33.8034 73.479 32.343 74.825C31.7524 75.0358 31.4302 75.1965 30.883 75.6245C30.6561 75.7954 30.4695 76.0312 30.2509 76.3077C29.958 76.6779 29.6074 77.1211 29.0248 77.5789C28.0073 78.3784 26.7685 78.9114 26.7685 78.9114L21.6364 81.8874L15 85.8406V86.7734L16.9909 85.5741L20.3976 83.5753L23.76 81.7098L29.2903 78.3784C29.5761 78.2764 29.7321 78.1663 29.9982 77.801C30.8223 76.6835 31.2786 76.0813 31.9448 75.6245C32.1766 75.5337 32.188 75.5869 32.1218 75.7578C31.5005 76.808 31.2224 77.4164 30.9273 78.5561L30.2636 80.9991L29.3345 85.0411L28.8921 87.8394C28.9733 88.0443 29.022 88.0471 29.1133 87.9283L29.5557 86.1515L29.9982 84.0639L31.1485 80.2884C31.7146 78.4933 32.0782 77.5074 33.0509 75.891C34.0649 74.5042 34.649 73.7677 35.7497 72.6041L36.9885 70.5609C37.1799 70.4854 37.2241 70.5068 37.2097 70.6497C36.7293 71.6021 36.5994 72.0154 36.5903 72.5597V74.7361C36.604 74.8992 36.6022 74.986 36.5018 75.0915L35.9266 75.7578C34.2533 78.4039 33.668 80.0032 32.7854 82.909C32.144 84.6939 31.9425 85.8006 31.6794 87.8394C31.5202 89.8771 31.4813 91.0476 31.6351 93.2584C31.8343 94.856 31.9573 95.6158 32.2103 96.5898C32.3152 96.682 32.3597 96.6841 32.3872 96.5009L32.343 95.8791L32.2545 94.1023V91.3484C32.3259 89.2824 32.4101 88.153 32.7854 86.2848C33.1632 84.3838 33.4001 83.3205 34.0242 81.4433C34.8837 79.2383 35.4062 78.0488 36.5018 76.1131C36.6052 76.0104 36.6538 75.9855 36.6788 76.1575L36.9442 78.2007L38.6254 85.7518L40.3951 92.9031L41.0587 96.3233C41.0987 96.4744 41.1407 96.4918 41.2357 96.4121L42.386 94.7242L44.8194 91.1708C44.8799 91.0472 44.9426 91.0373 45.0848 91.0819C46.2381 91.7021 46.8335 91.9222 47.7393 91.9259C47.8725 91.9811 47.9195 92.0303 47.9606 92.148L48.7127 93.6582C49.3944 95.5579 49.7281 96.3599 50.0842 96.5009C49.4172 98.6062 49.1747 99.699 48.9339 101.52C49.851 101.444 50.6175 101.4 51.346 101.387H50.7923C50.9524 99.8623 51.103 99.0174 51.4559 97.5223L51.6329 95.8789C51.8402 95.7128 51.9566 95.7254 52.1638 95.8789V101.384C53.0918 101.397 54.0275 101.458 55.2163 101.565C54.9093 99.383 54.6297 98.2478 53.8448 96.4565C54.3231 96.088 54.5487 95.8391 54.8624 95.3016C55.8461 93.7251 56.3727 92.8939 56.9418 92.1924C57.8885 91.7868 58.4078 91.522 59.2866 90.9043C59.3881 90.8201 59.435 90.8278 59.5078 90.9043L63.0914 96.5009C63.1582 96.5672 63.1872 96.565 63.2242 96.5009L65.2151 88.328C66.0382 84.8801 66.4423 82.8425 67.0733 79.0447C67.376 77.5716 67.5167 76.5399 67.6927 74.1587C67.7053 74.0664 67.7423 74.0853 67.8254 74.1587L69.0199 76.424C70.1189 78.7177 70.6609 80.0382 71.1878 82.5981C71.7051 84.7738 71.9018 86.0847 72.0727 88.5945V92.8142L71.8514 95.7458C72.4665 93.7288 72.6174 92.4639 72.7363 90.1047C72.786 87.6679 72.6845 86.2184 72.2054 83.4421C71.5789 80.5512 71.0613 79.0119 69.8163 76.424C68.9131 74.6735 68.4507 73.9872 67.6927 73.3148C67.7705 71.5667 67.7285 70.615 67.1175 69.095V68.7841L68.3563 70.8718L69.949 72.5597C71.2569 73.8521 71.8895 74.7099 72.7805 76.5573L74.506 80.9102L76.2757 85.9739L76.7181 87.262V86.5069L75.8333 82.8202L74.3733 78.4228C73.9308 77.0459 72.9133 74.6029 72.5151 74.2476C72.1169 73.8922 73.6023 74.9474 74.0193 75.5801C74.6939 76.525 75.1067 76.9807 75.966 77.5345L79.3284 79.2668L83.7526 81.3988L88.929 83.6641L94.0611 85.9295V84.9967C94.0027 84.9791 93.9484 84.9451 93.7957 84.819L93.3532 84.6413L80.3017 78.7338C78.3723 77.7638 75.8071 76.424 75.3466 75.9799C75.1547 75.7948 74.9691 75.5326 74.7698 75.2511L74.7698 75.2511C74.4909 74.857 74.1852 74.4252 73.7981 74.1143C73.1345 73.5813 72.0284 73.2259 72.0284 73.2259L70.1702 71.5381C69.7151 71.0921 69.4628 70.8071 69.0199 70.2055L68.2678 69.095L67.4714 68.0734L67.2945 67.9846C67.1106 68.0397 67.059 67.9996 67.1175 67.7181C67.8411 65.8343 68.1573 64.5909 68.6217 62.1659L69.1526 59.412L69.5508 57.4132H70.3029C70.7148 57.269 70.9791 57.0296 71.4975 56.3471L72.4708 54.7925L73.4884 52.8825L74.329 50.3063L74.7714 47.197C74.8852 46.3692 74.9096 45.7906 74.8599 44.4875C74.8937 44.2738 74.0635 43.4659 74.0635 43.4659L74.8599 39.8681ZM45.9697 89.9715C46.5185 90.2338 46.7809 90.3956 47.12 90.7266C47.1943 90.9237 47.1836 90.9886 47.0315 90.9931C46.5332 90.8565 46.2477 90.7331 45.7484 90.4157C45.657 90.1458 45.76 90.0605 45.9697 89.9715ZM58.5787 89.705C58.4455 89.6031 58.3776 89.6047 58.269 89.7494L57.3399 90.8154C57.2961 91.0758 57.3293 91.1274 57.4727 91.0819L58.7115 90.2824C58.8012 90.2712 58.8279 90.24 58.7999 90.1047L58.5787 89.705ZM56.986 87.3952C56.8645 87.3076 56.8024 87.2893 56.7206 87.3952C56.0268 88.0553 55.6105 88.3672 54.8181 88.8166C54.6476 88.9007 54.6125 88.9492 54.7296 89.0387L55.8357 89.3052C55.9435 89.3537 56.0222 89.3413 56.1896 89.2608L57.2072 88.2836C57.3638 88.246 57.3968 88.191 57.3399 88.0171L56.986 87.3952ZM66.3211 69.6281C66.6927 71.0602 66.7703 71.9023 66.7636 73.448C66.5879 76.0908 66.4258 77.4913 66.0114 79.8442L64.7284 86.4181L63.5339 91.304L62.9587 94.0135C62.9021 94.1948 62.8654 94.2659 62.7375 94.0135C61.6272 91.6174 60.8495 90.4065 59.4193 88.2836L57.0302 85.0855L55.7915 83.753C55.5935 83.6544 55.4521 83.6673 55.1721 83.753C54.4285 84.1285 53.9881 84.2949 53.1812 84.5525L52.8272 84.5969C52.7757 84.4977 52.8425 84.4026 53.0484 84.1972C55.0714 82.8669 56.1723 82.0496 58.0921 80.4661C60.4623 78.4072 61.7189 77.0435 63.7993 74.1587C64.887 72.6631 65.3515 71.6316 66.0557 69.6281C66.0728 69.5934 66.0886 69.5649 66.1034 69.5422C66.1883 69.412 66.2406 69.4704 66.3211 69.6281ZM51.5 84.5525C51.3345 84.5986 51.2294 84.6058 50.969 84.5081L49.5975 83.7086C49.4418 83.5995 49.355 83.5843 49.1993 83.7086L48.6684 84.1527C47.5127 85.0682 46.9254 85.7088 45.9254 86.9511C44.8235 88.425 44.2565 89.3327 43.2709 90.9931L41.8109 93.7914C41.7997 93.8289 41.7908 93.8651 41.7827 93.8977C41.7445 94.0523 41.7258 94.1276 41.5897 93.8803L41.4127 93.0807L40.7048 90.0603L39.643 85.5297L38.4485 80.6437C37.9456 78.3685 37.7246 77.019 37.5194 74.3808L37.5172 74.2234C37.5071 73.4992 37.5007 73.0476 37.6521 72.4264L38.3157 70.3388C38.377 70.2076 38.4288 70.2246 38.5369 70.3388C38.5625 70.6616 38.5936 70.8138 38.6697 71.0495L39.2891 72.6929C40.314 75.0973 40.9845 76.1271 42.2975 77.5789C44.2064 79.3243 45.2877 80.2182 47.2527 81.5321L49.686 83.1311L51.4115 84.1972C51.5624 84.3773 51.5972 84.4602 51.5 84.5525ZM47.12 87.9283L49.2878 85.3964L49.4041 85.3979C51.5814 85.4248 52.8375 85.4403 54.9951 85.0855L56.0569 86.3292C56.1633 86.5761 56.1579 86.6805 56.0569 86.8178L53.1812 88.8166C51.2871 88.7606 50.2781 88.8625 48.6684 89.5273C48.5046 89.6601 48.4176 89.7192 48.3145 89.6606C48.3062 89.5385 48.2797 89.4533 48.1818 89.2608L47.12 88.2836C47.0099 88.1592 47.0201 88.0801 47.12 87.9283ZM31.1485 28.5415C30.89 28.4252 30.8668 28.4493 31.0157 28.6303L31.8121 29.5187C32.7447 30.1458 33.2581 30.3625 34.1569 30.5403C34.4049 30.5785 34.4184 30.5356 34.2454 30.3626C32.8994 29.9703 32.2408 29.5266 31.1485 28.5415ZM67.5157 29.1634C67.9907 28.639 67.8817 28.635 67.3387 28.8969L65.0824 29.6075C64.3128 29.878 64.1954 29.9674 65.2593 29.8741C65.4333 29.8356 65.5903 29.805 65.7382 29.7762C66.3158 29.6635 66.7539 29.578 67.5157 29.1634ZM66.4981 21.8788C66.4981 21.8788 67.8025 19.1646 66.1884 21.79C64.5743 24.4154 63.7646 25.152 61.4102 26.7648C60.5726 27.518 60.7586 27.5117 61.8084 27.0313C64.4865 25.1071 65.3858 24.3672 66.4981 21.8788ZM68.489 18.9028C68.1189 20.3851 68.0211 20.4839 68.1351 18.7252C68.0804 17.7789 67.9688 17.2541 67.6484 16.3266C67.2041 15.5681 67.0723 15.477 67.206 16.371L67.2945 17.7035C67.1567 18.5167 67.0786 18.5416 66.9405 17.7035L66.7636 16.7708L66.2769 15.3938C65.6838 14.2963 65.3144 13.7024 64.5072 12.7287C63.5037 11.7025 63.5062 11.8379 64.4187 13.2173L64.9054 14.5499C65.5902 17.0394 65.6064 18.3687 65.3036 20.6795C64.921 22.1637 64.8468 22.1801 65.0824 20.0577L65.0381 18.1477C64.5813 14.9475 63.8477 13.22 61.8084 10.2413C60.6093 8.49842 60.8937 8.68831 62.2508 10.0637C64.0802 11.6823 65.0519 12.6222 66.3654 14.5499C66.6472 14.9147 66.743 14.9059 66.7636 14.3722L66.5866 13.8836C66.3534 12.969 66.4562 12.9956 66.9848 13.8392L67.4714 14.8164C68.3975 16.4167 68.5625 17.311 68.489 18.9028ZM63.4896 16.1489C62.4825 14.1568 62.435 14.2971 63.0472 16.2378C63.6445 18.543 63.5871 19.8161 62.8702 22.0565C61.4805 24.9789 60.3623 26.3747 57.9151 28.5415C56.3559 29.8441 56.6046 29.7719 58.0921 28.8969L59.7733 27.3866C61.7175 25.3859 62.6376 24.1663 63.6224 21.6123C64.2072 19.479 64.2185 18.283 63.4896 16.1489ZM62.4278 16.5043C62.0296 15.0829 61.9181 15.2727 62.0296 16.904C62.1412 18.5353 62.0644 19.4414 61.543 21.0349C61.2408 22.0841 61.2809 22.1556 61.9854 20.724L62.2508 19.88C62.5672 18.6293 62.5973 17.8882 62.4278 16.5043ZM59.906 15.7936C59.1819 14.3229 59.1104 14.3343 59.5963 15.9268C60.1615 18.171 60.2258 19.5214 59.9945 22.0565C59.849 23.5616 59.8677 23.8921 60.4369 21.7456C60.787 19.2609 60.7011 17.9489 59.906 15.7936ZM58.269 10.952C59.2321 11.8184 59.1488 11.8879 57.8266 11.2185L54.3757 9.886C53.2218 9.36454 53.0474 9.22003 54.5527 9.53065C56.15 9.94094 56.9452 10.2705 58.269 10.952ZM56.7206 11.796C59.066 12.6136 59.2489 12.6239 56.986 11.6183C55.266 10.8636 54.3455 10.597 52.7387 10.2413C50.6524 9.81425 51.049 9.98035 52.6503 10.5078L56.7206 11.796ZM56.1012 14.0613C57.6421 14.5868 57.7932 14.5468 56.2339 13.6171C54.3556 12.7513 53.2241 12.3845 51.0133 12.0181C48.6994 11.6256 48.3244 11.6309 50.6593 12.3734C52.9122 12.8728 54.0958 13.252 56.1012 14.0613ZM51.7212 13.4394C50.6824 12.562 51.047 12.7278 52.2963 13.4394C53.6265 14.2604 54.2978 14.7484 55.3933 15.6603C56.2202 16.6122 56.1207 16.6214 55.0393 15.7936L51.7212 13.4394ZM46.589 13.7948C47.7813 14.3606 47.8165 14.4472 46.1466 13.9724C45.3066 13.634 44.8051 13.5409 43.8903 13.4394C42.7849 13.2723 42.6602 13.2201 44.023 13.2173C45.0678 13.3003 45.6288 13.4309 46.589 13.7948ZM48.6242 15.3938C51.2546 15.7334 50.5266 15.5271 48.9339 15.1273C48.2294 14.9505 47.6294 14.7637 47.1139 14.6033C46.464 14.4011 45.9485 14.2406 45.5272 14.1945C44.7718 14.1119 44.3569 14.0868 43.6248 14.0613L40.1297 14.3722H38.4485C37.5151 14.5744 37.2628 14.6659 38.6254 14.6831C39.3124 14.7362 39.3036 14.8316 38.8024 15.0829L37.4309 15.4827C35.5741 15.9769 36.218 15.9006 37.6521 15.7047L39.3775 15.5271L41.9878 14.772C43.555 14.5533 44.465 14.528 46.1466 14.6831L48.6242 15.3938ZM50.4824 17.0817C53.756 17.9629 53.1256 17.6692 50.969 16.8152L46.9872 16.0601C45.7984 15.7991 45.1107 15.7212 43.846 15.7047C41.841 15.6494 40.6745 15.7219 38.5812 15.8824L35.8824 16.2378H33.803C32.3755 16.1363 32.3231 16.1911 33.6703 16.5043C34.8934 16.7315 36.723 16.6375 36.723 16.6375C36.723 16.6375 39.3269 16.2487 41.103 16.0601H43.6691C45.1268 16.0623 45.9268 16.0925 47.1642 16.4598L50.4824 17.0817ZM31.6794 16.5043C30.6356 15.7564 30.5719 15.7638 31.6794 16.7708L33.803 17.9256C35.4928 18.4916 36.6427 18.7324 39.0236 19.0361L41.8551 19.2582C42.6865 19.4362 43.2798 19.6303 44.5097 20.1021L46.6333 21.1237C49.1479 22.6581 49.006 22.4715 46.9872 20.9461C45.0722 19.7519 43.9239 19.3489 41.8109 18.8584L34.9533 17.7035C33.6349 17.5181 32.9288 17.1791 31.6794 16.5043ZM48.6242 17.0817C46.7682 16.9702 46.6263 17.0624 48.6242 17.6147C50.5257 18.2042 51.2241 18.6823 52.3848 19.5691C53.459 20.4973 53.8948 21.0874 54.5527 22.1898C55.2852 23.2152 55.298 23.0889 54.3315 21.1237L52.9599 19.4803C51.526 18.1918 50.6247 17.6014 48.6242 17.0817ZM41.2357 17.6147C39.2503 17.3782 39.6076 17.3351 41.7224 17.3482L46.8545 17.9701C48.9791 18.4324 50.0036 18.8936 51.5884 20.0133L52.1636 20.5019C53.43 22.0877 53.5492 22.318 52.1636 20.9461C50.4066 19.5095 49.2837 18.9365 46.9872 18.4142C45.156 18.008 43.9003 17.8822 42.0508 17.697C41.7918 17.671 41.5212 17.6439 41.2357 17.6147ZM32.9624 18.4142C32.2536 17.6449 32.5463 17.7776 33.4491 18.3254L35.5727 19.5691C36.4738 19.9885 37.0127 20.1881 38.183 20.3242C40.015 20.5824 40.1283 20.6675 38.183 20.6795C36.8168 20.5973 36.1118 20.4042 34.9533 19.7912L32.9624 18.4142ZM40.1297 19.6579C38.6458 19.1978 38.9757 19.1841 40.8818 19.4358L46.5006 22.0121C49.1383 23.5306 50.4574 24.5472 52.0751 27.1201C52.5343 27.9176 52.5674 28.7053 52.606 30.1406C52.4322 31.409 52.3574 31.195 52.2521 29.341C51.9 27.2712 51.4176 26.3809 50.1727 25.2102C48.0089 23.1887 46.6575 22.3923 44.1115 21.3014L40.1297 19.6579ZM35.1745 22.6784C35.8819 22.7801 36.2751 22.8357 35.263 22.1453L32.9624 21.6567C31.3072 21.3309 31.5223 21.4794 32.8297 22.0121L35.1745 22.6784ZM36.3691 23.7444C36.0408 22.7187 35.9785 22.8273 36.0594 24.0997C36.3766 25.1498 36.587 25.6993 37.0769 26.5427C38.03 27.6591 38.6139 28.2326 39.9527 28.9413C41.1888 29.6159 41.0241 29.44 40.3066 28.8524C38.9434 27.9787 38.3008 27.3355 37.2982 26.0097C36.7534 25.223 36.5874 24.7068 36.3691 23.7444ZM38.0503 25.1658C37.5241 24.4704 37.4268 24.4346 37.8733 25.4767L38.8909 27.0757C39.567 27.8241 39.9582 28.1305 40.6606 28.6304C41.4964 29.1953 41.6708 29.2679 41.0588 28.6304L39.2891 26.9425L38.0503 25.1658ZM54.3315 26.4095C54.69 24.6795 54.7277 24.9145 54.5527 27.1201C54.2835 28.6704 54.0815 29.5095 53.5351 30.8957C52.9202 32.3747 52.887 32.1946 53.2254 30.5847L53.6236 29.2078L54.3315 26.4095ZM56.5436 23.2114C56.2011 21.3025 56.1784 21.9303 56.1896 23.5667C56.0531 25.6345 55.8271 26.6254 55.0836 28.0085C53.99 30.329 54.0764 30.3877 55.349 28.4971C56.0695 27.4656 56.3238 26.7075 56.5436 25.0769V23.2114ZM33.7588 46.7973C34.189 47.274 34.294 47.2708 33.98 46.2643C33.3099 45.0845 32.967 44.6823 32.3872 44.221C32.1735 44.1069 32.0305 44.1016 31.7236 44.221C31.192 44.7117 31.0565 45.0258 31.06 45.6424V48.0854C31.1718 50.0038 31.3212 51.007 31.8563 52.5716L33.1836 55.1478L34.0242 56.3471C34.3498 56.7848 34.5788 56.8817 35.0418 56.8801C35.3857 56.8805 35.4873 56.8238 35.3515 56.5248C34.8538 55.1086 34.7078 54.2279 34.5109 52.616L34.3782 51.5056C34.3844 51.1538 34.3007 51.1939 34.1127 51.3723L33.803 51.7277C33.6328 51.8343 33.5498 51.8179 33.4491 51.6388L33.0509 50.9281C33.0277 50.7468 33.096 50.6726 33.3163 50.5728L33.98 49.9065C34.117 49.7616 34.1324 49.6599 34.1127 49.4623V48.9738C33.8495 48.369 33.6461 48.068 33.1836 47.5968L32.8297 47.0194C32.6139 46.7311 32.5288 46.7014 32.4757 47.0194L32.2103 48.6184C32.098 49.6459 32.1642 50.1697 32.3872 51.0614L32.8297 52.3495C33.4028 53.4054 33.3458 53.5049 32.6969 52.9714C32.2069 52.2316 32.0549 51.7464 31.8563 50.8393C31.7216 49.8245 31.6873 49.2392 31.6794 48.1742V46.7529C31.6944 46.4926 31.66 46.38 31.5466 46.2198V45.6424C31.6315 45.4674 31.7302 45.4584 31.9448 45.5092C32.5133 45.5316 32.8113 45.7048 33.3163 46.2643L33.7588 46.7973ZM71.8957 47.2859C71.3604 48.193 71.1547 48.4306 71.3648 47.197C71.6004 45.7882 71.9689 45.234 72.869 44.4875C73.3003 44.0903 73.5427 44.1134 73.9751 44.3543C74.388 44.5603 74.4172 44.8434 74.329 45.4647L74.1963 47.7745L73.7981 50.4395C73.4276 52.1029 73.0909 52.9569 72.2054 54.3039C71.6815 55.3627 71.3174 55.7934 70.6127 56.436C69.9508 56.8116 69.754 56.7847 69.949 55.9918L70.6127 52.9714C70.8891 51.6288 70.9534 51.5639 70.9224 52.5272C70.9028 52.9441 70.9786 52.9201 71.232 52.5272L71.6745 51.7721C71.8652 51.355 71.865 51.1127 71.6745 50.6616C71.2299 50.2125 71.3018 49.6961 71.6745 48.574L72.3823 47.3747C72.971 46.3801 73.1205 46.4692 73.1787 47.3747C73.241 48.5922 73.182 49.2883 72.7805 50.5728L72.2939 51.9053C72.0416 52.7763 72.1568 52.7378 72.6478 52.083C73.0695 51.0336 73.2524 50.4198 73.4884 49.2847C73.7074 47.8595 73.7875 47.0625 73.8866 45.6424C73.9762 45.114 73.8408 45.0706 73.223 45.5092C72.6538 46.1047 72.377 46.5201 71.8957 47.2859ZM51.9424 64.7865L52.8272 65.4084C53.1304 65.5188 53.292 65.4379 53.5793 65.2751L54.2872 64.8754C54.4862 64.7611 54.524 64.6512 54.5527 64.4312V64.2535C54.574 63.8647 54.6129 63.9892 54.6854 64.2535C54.865 64.9368 55.095 65.1501 55.703 65.2751H56.2339C56.6947 65.3338 56.7848 65.4016 56.8533 65.5416C56.9077 65.6464 56.9492 65.5754 57.0302 65.364L56.9418 65.1863C56.912 64.8971 56.9647 64.8851 57.163 65.0974C57.5603 65.6727 57.86 65.8648 58.5345 65.9858C59.0146 66.0933 59.2595 66.302 59.6848 66.7409C59.9058 66.6701 59.9778 66.755 60.083 66.963L60.4811 67.8514C60.5651 68.1785 60.5207 68.2114 60.3042 68.029C60.1593 67.8579 60.1082 67.8574 60.1272 68.2067L60.4369 69.1839C60.6491 69.6359 60.6128 69.6965 60.3042 69.4948L60.083 69.3616C59.8452 69.2317 59.7995 69.2704 59.906 69.5836L60.1714 70.0278C60.3582 70.3445 60.3045 70.3582 60.0387 70.2055C59.7003 70.1105 59.6897 70.2089 59.7733 70.472V70.7829C59.8219 71.0129 59.7824 71.0474 59.6405 71.005C59.4034 70.7875 59.3663 70.8471 59.3751 71.0939L59.4636 71.4048C59.6313 71.793 59.6023 71.8168 59.3751 71.5825C59.0429 71.2174 58.9662 71.1967 59.1096 71.6269C59.2484 71.8939 59.2251 71.9196 58.9769 71.7157C58.6107 71.3831 58.7151 71.6013 59.0654 72.2043C59.1993 72.4656 59.1921 72.5195 58.9327 72.3376L58.6672 72.0266C58.2985 71.6611 58.1711 71.6539 58.2248 72.3376L58.4018 72.7373C58.4986 73.18 58.4815 73.2764 58.1363 72.7817L57.6054 72.2932C57.2094 72.0195 57.1851 72.0953 57.3842 72.5152L57.5169 72.7817C57.6741 73.1646 57.6734 73.2237 57.3842 72.8262L56.986 72.3376C56.6226 71.9541 56.5926 72.0488 56.809 72.6929L57.163 73.4036C57.328 73.95 57.3145 74.0316 56.986 73.5368C56.699 72.9036 56.4611 72.5845 56.0127 72.0266C55.7296 71.782 55.6548 71.808 55.703 72.2043L55.8357 72.5152C56.0148 73.0549 55.9525 73.0597 55.6145 72.6485L55.0836 71.538C55.0348 71.2455 55.0074 71.0501 54.9859 70.8965L54.9859 70.8963C54.9601 70.7117 54.9427 70.5876 54.9066 70.4276C54.8507 70.1796 54.8573 70.185 54.9414 70.2524L54.9417 70.2527C54.9569 70.2649 54.9747 70.2792 54.9951 70.2943L55.0393 70.472C55.1796 70.7639 55.2048 70.6685 55.2163 70.3388L55.1278 69.5392C55.0982 69.3515 55.186 69.3165 55.4375 69.3171H55.7472C55.9096 69.3272 55.9409 69.2569 55.9684 69.0951L55.9242 68.8285C55.861 68.7372 55.7769 68.7341 55.526 68.8285C54.9929 68.9426 54.7046 68.9112 54.1987 68.7841C53.9289 68.7337 53.8436 68.7484 53.8448 68.873C53.8075 69.0538 53.7304 69.0482 53.4909 68.8285C53.3664 68.6432 53.2725 68.6305 53.0484 68.8285C52.8718 69.0261 52.73 69.0443 52.3848 68.873C51.6663 68.7373 51.2141 68.7041 50.3496 68.6953L50.2169 68.6509C49.9584 68.6072 49.9229 68.6872 49.9515 68.9174L50.04 69.6281C50.0085 69.9773 50.109 69.8679 50.3054 69.6281L50.4381 69.4948C50.6713 69.329 50.7039 69.3963 50.7478 69.5392L50.5709 70.472C50.5064 71.0516 50.6171 70.9155 50.8363 70.6053V70.3388C51.0685 70.062 51.0646 70.177 51.0576 70.382L51.0575 70.3832C50.958 71.2095 50.8093 71.6095 50.4381 72.2487L49.8187 73.1371C49.3362 73.9005 49.232 74.0082 49.5975 73.1371L50.04 72.5152C50.3432 71.7032 50.2801 71.6196 49.7745 72.1155L48.3145 73.5813C48.023 73.9647 47.9415 74.0127 48.0933 73.4924L49.0224 72.3376C49.3488 71.9643 49.2922 71.9199 48.8012 72.1155C48.6308 72.1054 48.5336 72.1009 48.2703 72.1599L47.3854 72.9594C47.0847 73.1865 46.9868 73.2104 47.1642 72.7373L47.3854 72.3376C47.5031 72.0275 47.4761 71.9347 47.0315 72.1155C46.7532 72.3651 46.6496 72.4318 46.8103 72.0711C46.9925 71.8529 46.9763 71.8006 46.6333 71.8934C46.2834 72.23 46.2098 72.2299 46.4121 71.7157L46.589 71.4936C46.7288 71.2241 46.7388 71.1292 46.3236 71.316C46.0112 71.6572 45.9578 71.6473 46.1024 71.2271C46.2793 70.9442 46.2807 70.8841 46.0139 71.0494C45.8007 71.1721 45.7732 71.1241 45.9254 70.7829C46.3176 70.3101 46.3642 70.2025 45.7927 70.6053C45.3904 70.9745 45.2916 71.0154 45.483 70.6053L45.6599 69.7613C45.6647 69.5266 45.6309 69.4845 45.483 69.6281L45.2618 69.8057C44.8555 69.9698 44.8359 69.9006 45.1733 69.4948L45.3945 69.3616C45.5969 69.0608 45.5322 68.9901 45.1733 69.0062C44.7516 69.2134 44.7136 69.1349 45.0406 68.6065C45.3629 68.4364 45.4037 68.3177 45.2618 68.0734C45.257 67.7803 45.3133 67.6339 45.5272 67.4072L46.2794 66.5632C46.3505 66.4413 46.4132 66.3852 46.5006 66.3718C46.5497 66.3643 46.6068 66.3703 46.6775 66.3856C48.0264 66.6254 48.8382 66.6713 50.3496 66.6521C51.2949 66.8093 51.8286 66.8504 52.783 66.8742C53.8752 66.8482 54.2868 66.8006 54.9066 66.6965H56.0127L57.6054 66.6077L58.623 66.5188C59.0784 66.2529 58.9546 66.2018 58.3575 66.2079L55.9684 65.9858C54.9094 65.9163 54.3467 65.941 53.4024 66.1191C51.3138 65.8665 50.3068 65.9111 48.6242 66.1191L46.8545 66.2079C46.696 66.1618 46.6894 66.1213 47.0315 65.9858L48.3145 65.6305C48.3689 65.5906 48.4116 65.5585 48.445 65.5334L48.445 65.5333C48.5178 65.4785 48.546 65.4573 48.554 65.4632C48.559 65.467 48.556 65.4816 48.5511 65.5056C48.5451 65.5346 48.5363 65.5771 48.5357 65.6305C48.4845 65.7713 48.6615 65.7208 48.9769 65.6308L48.9769 65.6308L48.9781 65.6305L49.2878 65.364C49.4579 65.0925 49.5432 65.0793 49.686 65.2751C49.5548 65.5078 49.6993 65.4781 50.04 65.364L50.5709 64.5644C50.9458 63.6394 50.8926 63.9595 50.8035 64.4955L50.7921 64.5644L50.6151 65.0974C50.4884 65.3284 50.6092 65.3212 51.0575 65.1419C51.3021 65.0584 51.4237 64.9692 51.6327 64.7865C51.7529 64.6164 51.8207 64.6772 51.9403 64.7847L51.9424 64.7865ZM38.183 47.0194C36.8558 47.31 36.9822 47.0823 37.8291 46.3975C39.0529 45.5031 39.7596 45.0833 41.103 44.6652H41.6781C42.7982 45.2027 43.4184 45.4283 44.5097 45.6868L48.4472 46.664L49.6418 46.8417L49.863 46.8861C49.9236 46.9468 49.941 47.0079 49.9515 47.1526C50.043 47.4996 50.1024 47.4926 50.2169 47.2415V47.1082C50.2856 46.9742 50.3713 47.0016 50.5709 47.1526C50.6286 47.5099 50.615 47.6935 50.5266 47.9966L50.3939 48.3075C50.2552 48.5059 50.3033 48.6007 50.5266 48.7517C51.0254 49.1296 51.1491 49.4171 51.2345 49.9954L51.1903 50.8393L51.0575 51.3279C50.7793 51.6501 50.6737 51.7088 50.7036 51.2835C50.7702 50.9253 50.7486 50.7473 50.5709 50.484L49.509 49.3735L48.8897 48.9293C48.4295 48.7343 48.2442 48.6809 48.3587 48.9293L49.0224 49.5956L49.2878 49.9509C49.3862 50.2667 49.3851 50.4164 49.2436 50.6172C49.1265 50.9507 49.0156 50.961 48.7569 50.7505L48.1375 50.3063C47.9663 50.2158 47.8544 50.2269 47.6509 50.2619H47.1642C46.9328 50.2472 46.9268 50.1828 47.0757 49.9954L47.4739 49.9065C47.8507 49.9257 47.8559 49.8366 47.6951 49.5956L46.8987 48.8405C46.6693 48.6197 46.5983 48.6121 46.589 48.8405C46.5089 49.4705 46.2676 49.7381 45.5272 50.0842C44.6833 50.2235 44.3452 49.9428 43.8018 49.2847L43.6248 48.8405C43.6513 48.6823 43.5285 48.687 43.2266 48.7517L42.2533 49.1958C42.0468 49.3156 42.0325 49.3833 42.2091 49.5068L43.0497 50.0398C43.2623 50.2162 43.3237 50.2996 42.74 50.2619L41.8109 49.7289C41.6074 49.5964 41.5108 49.5922 41.3242 49.7289L40.8818 50.0842C40.7107 50.1335 40.6225 50.1281 40.4836 50.0398L40.0412 49.5956C39.8728 49.3842 39.9297 49.298 40.2624 49.1958L41.5012 48.5296C42.3009 48.2221 42.738 48.1078 43.4921 48.041L44.0672 47.9966C44.3584 47.935 44.3686 47.8872 44.0672 47.7745L41.8109 47.3303L40.2181 47.0638L38.183 47.0194ZM45.3503 48.574C44.9963 48.574 44.9963 49.107 45.3503 49.107C45.7042 49.107 45.7042 48.574 45.3503 48.574ZM55.1721 57.3688C55.1063 57.452 55.0682 57.454 54.9951 57.3688V55.9029V53.9041V51.3723L55.0836 50.9282L55.703 49.2847C55.7827 49.0943 55.8063 49.0022 55.526 49.0626L55.0393 49.1514C54.6734 49.0612 54.4926 48.9357 54.2872 48.3519V47.4635C54.4659 47.1677 54.5198 47.2246 54.5969 47.4191L54.9509 48.1742C55.202 48.4417 55.2432 48.3604 55.2606 48.0854L55.2163 47.2859C55.1924 47.1067 55.2462 47.063 55.4375 47.0638C57.079 46.9097 57.9916 46.7736 59.5963 46.3975C61.5678 45.9487 62.6582 45.6313 64.5514 44.8429C64.8182 44.6381 64.9521 44.6106 65.1708 44.6652C66.793 45.4509 67.6419 45.9265 68.8872 46.9305C69.1279 47.2431 69.1182 47.3456 68.7102 47.3303C68.0254 47.0429 67.5115 46.9959 66.3211 47.1526L62.8702 47.7745C62.4376 47.9087 62.5466 47.9312 62.8702 47.9521C64.2622 48.2774 64.9598 48.5334 65.923 49.2403C66.12 49.4013 66.1628 49.4895 66.0114 49.64L65.746 49.9065C65.5757 50.0184 65.4727 50.0447 65.2593 49.9509L64.9939 49.6844C64.7964 49.5542 64.6873 49.5109 64.5072 49.6844L64.109 49.9509L64.0928 49.9664L64.0765 49.9822C63.9743 50.0817 63.908 50.1463 63.5781 50.0842C63.4736 50.0036 63.4045 50.0049 63.2684 50.0842L63.003 50.173C62.652 50.2607 62.4728 50.2992 62.6933 50.0398L63.8878 49.4623C64.0985 49.2935 64.1063 49.2238 63.8878 49.1514L63.003 48.7961C62.7801 48.6921 62.6725 48.6571 62.6933 48.8849C62.6846 48.9386 62.6788 48.9879 62.6734 49.0343C62.6502 49.2311 62.6331 49.3772 62.4278 49.5956C62.0023 49.99 61.6624 50.1786 60.9236 50.0842C60.1608 49.8208 59.8415 49.5455 59.6405 48.6184C59.562 48.4809 59.5069 48.4632 59.3751 48.6184L58.446 49.4623C58.3366 49.6499 58.3587 49.7168 58.5345 49.7733L59.1981 50.0398C59.3923 50.2492 59.3827 50.2963 59.1539 50.2619H58.2248C58.0936 50.2452 58.0105 50.2556 57.8266 50.3507L57.163 50.6616C56.7712 50.8106 56.7274 50.6658 56.8975 50.0842C57.3295 49.6065 57.5793 49.359 58.0478 48.9738C58.2154 48.7402 58.1801 48.6982 57.7381 48.8849L57.2515 49.1514L56.4993 49.8177L55.703 50.9282C55.5413 51.1183 55.4622 51.2594 55.349 51.5944V52.9714L55.1721 54.7481V57.3688ZM29.8212 24.5439C29.4313 24.245 29.236 24.1088 29.423 24.5883L30.7503 26.898C31.2168 27.5547 31.62 27.8867 32.9624 28.3194H34.3339C34.5117 28.2875 34.4586 28.2332 34.2012 28.0973C32.9517 27.3224 32.294 26.7674 31.1485 25.6988L29.8212 24.5439ZM75.966 29.1634C75.9233 28.4877 75.8552 28.4809 75.6563 29.1634L75.1696 30.4959C74.648 31.9193 74.1319 32.5526 72.7363 33.3386C71.5378 33.6525 70.8593 33.6859 69.6393 33.5607L68.7102 33.4275C68.414 33.4575 68.2591 33.4771 68.1793 33.5607L67.6484 34.0049C67.5385 34.2155 67.5419 34.2854 67.7369 34.2714H68.4005C70.0306 34.5321 70.8109 34.6779 71.6302 34.9377H72.2939C73.7534 34.8746 74.3317 34.6388 74.9484 33.8717C75.6795 32.4407 75.8796 31.3829 75.966 29.1634ZM56.1012 68.6953V68.9174C56.1454 69.0795 56.1856 69.0631 56.2781 68.9174V68.6953C56.1576 68.5651 56.1156 68.5589 56.1012 68.6953ZM49.8187 68.562C49.6289 68.5109 49.5503 68.5166 49.5091 68.6509L49.4648 68.8285C49.4795 68.9934 49.5657 68.9978 49.7078 69.0051L49.7303 69.0062C49.7516 68.996 49.7444 68.9371 49.7303 68.8285C49.8424 68.6435 49.8581 68.589 49.8187 68.562ZM61.2332 48.5739C60.9677 48.5739 60.8792 49.0181 61.2332 49.0181C61.5871 49.0181 61.4986 48.5739 61.2332 48.5739Z" fill="white"/>
<circle cx="53.5" cy="53.5" r="53" stroke="white"/>
</svg>
