<svg width="54" height="54" viewBox="0 0 54 54" fill="none" xmlns="http://www.w3.org/2000/svg">
<path d="M27 4.5C21.0327 4.5 15.3097 6.87053 11.0901 11.0901C6.87053 15.3097 4.5 21.0327 4.5 27C4.5 32.9673 6.87053 38.6903 11.0901 42.9099C15.3097 47.1295 21.0327 49.5 27 49.5C32.9673 49.5 38.6903 47.1295 42.9099 42.9099C47.1295 38.6903 49.5 32.9673 49.5 27C49.5 21.0327 47.1295 15.3097 42.9099 11.0901C38.6903 6.87053 32.9673 4.5 27 4.5Z" fill="black"/>
<path d="M38.1938 16.875L33.9795 38.3918C33.9795 38.3918 33.7984 39.375 32.5789 39.375C31.9309 39.375 31.5968 39.0668 31.5968 39.0668L22.4685 31.4921L18.0023 29.241L12.2704 27.7166C12.2704 27.7166 11.25 27.4219 11.25 26.5781C11.25 25.875 12.2996 25.5398 12.2996 25.5398L36.2801 16.0133C36.2801 16.0133 37.0125 15.7489 37.5469 15.75C37.8754 15.75 38.25 15.8906 38.25 16.3125C38.25 16.5938 38.1938 16.875 38.1938 16.875Z" fill="white"/>
<path d="M25.8751 34.3182L22.0208 38.114C22.0208 38.114 21.8532 38.2434 21.6293 38.249C21.5517 38.2512 21.4684 38.2389 21.3829 38.2006L22.4674 31.49L25.8751 34.3182Z" fill="#B0BEC5"/>
<path d="M33.6341 20.4704C33.444 20.2229 33.093 20.1779 32.8455 20.3658L18 29.2499C18 29.2499 20.3693 35.8784 20.7304 37.0259C21.0926 38.1745 21.3829 38.2015 21.3829 38.2015L22.4674 31.4909L33.5284 21.2579C33.7759 21.07 33.822 20.7179 33.6341 20.4704Z" fill="black"/>
</svg>
