<svg width="50" height="50" viewBox="0 0 50 50" fill="none" xmlns="http://www.w3.org/2000/svg">
<path d="M25 4.16663C19.4747 4.16663 14.1756 6.36156 10.2686 10.2686C6.36162 14.1756 4.16669 19.4746 4.16669 25C4.16669 30.5253 6.36162 35.8243 10.2686 39.7313C14.1756 43.6384 19.4747 45.8333 25 45.8333C30.5253 45.8333 35.8244 43.6384 39.7314 39.7313C43.6385 35.8243 45.8334 30.5253 45.8334 25C45.8334 19.4746 43.6385 14.1756 39.7314 10.2686C35.8244 6.36156 30.5253 4.16663 25 4.16663Z" fill="#F5764E"/>
<path d="M35.3646 15.625L31.4625 35.548C31.4625 35.548 31.2948 36.4584 30.1656 36.4584C29.5656 36.4584 29.2563 36.173 29.2563 36.173L20.8042 29.1594L16.6688 27.075L11.3615 25.6636C11.3615 25.6636 10.4167 25.3907 10.4167 24.6094C10.4167 23.9584 11.3886 23.648 11.3886 23.648L33.5927 14.8271C33.5927 14.8271 34.2709 14.5823 34.7656 14.5834C35.0698 14.5834 35.4167 14.7136 35.4167 15.1042C35.4167 15.3646 35.3646 15.625 35.3646 15.625Z" fill="white"/>
<path d="M23.9583 31.7761L20.3896 35.2907C20.3896 35.2907 20.2344 35.4105 20.0271 35.4157C19.9552 35.4178 19.8781 35.4063 19.799 35.3709L20.8031 29.1573L23.9583 31.7761Z" fill="#B0BEC5"/>
<path d="M31.1427 18.9541C30.9667 18.7249 30.6417 18.6832 30.4125 18.8572L16.6667 27.0832C16.6667 27.0832 18.8604 33.2207 19.1948 34.2832C19.5302 35.3468 19.799 35.3718 19.799 35.3718L20.8031 29.1582L31.0448 19.6832C31.274 19.5093 31.3167 19.1832 31.1427 18.9541Z" fill="#CDCDCD"/>
</svg>
