<svg width="54" height="54" viewBox="0 0 54 54" fill="none" xmlns="http://www.w3.org/2000/svg">
<path d="M27 4.5C21.0327 4.5 15.3097 6.87053 11.0901 11.0901C6.87053 15.3097 4.5 21.0327 4.5 27C4.5 32.9673 6.87053 38.6903 11.0901 42.9099C15.3097 47.1295 21.0327 49.5 27 49.5C32.9673 49.5 38.6903 47.1295 42.9099 42.9099C47.1295 38.6903 49.5 32.9673 49.5 27C49.5 21.0327 47.1295 15.3097 42.9099 11.0901C38.6903 6.87053 32.9673 4.5 27 4.5Z" fill="black"/>
<path d="M40.4291 20.2961C40.4809 20.1263 40.5056 19.9688 40.4989 19.8281C40.482 19.4209 40.2019 19.125 39.5426 19.125H36.5974C35.8537 19.125 35.5106 19.575 35.3104 20.0261C35.3104 20.0261 33.4744 23.805 31.3582 26.2969C30.672 27.018 30.3232 27 29.952 27C29.7529 27 29.25 26.7592 29.25 26.0989V20.2657C29.25 19.485 29.0554 19.125 28.4265 19.125H23.1964C22.7385 19.125 22.5 19.485 22.5 19.8461C22.5 20.5965 23.5103 20.7765 23.625 22.8791V26.955C23.625 27.945 23.4529 28.125 23.0816 28.125C22.0804 28.125 20.1094 24.75 18.7897 20.3265C18.504 19.4558 18.2182 19.125 17.4746 19.125H14.5013C13.6429 19.125 13.5 19.5458 13.5 19.9958C13.5 20.8069 14.175 25.1921 17.8594 30.2344C20.5312 33.8906 24.0514 36 27.1676 36C29.0554 36 29.2489 35.5196 29.2489 34.7692V31.4257C29.25 30.5246 29.4559 30.375 30.0566 30.375C30.4852 30.375 31.3594 30.6562 33.0469 32.625C34.9931 34.8953 35.3464 36 36.4624 36H39.4076C40.0916 36 40.4842 35.7131 40.5 35.1562C40.5034 35.0145 40.4831 34.8559 40.437 34.6793C40.2188 34.0312 39.2175 32.4473 37.9688 30.9375C37.2769 30.1016 36.594 29.2736 36.2801 28.8236C36.0697 28.53 35.9899 28.323 36 28.125C36.0101 27.9169 36.1181 27.7189 36.2801 27.4421C36.2509 27.4421 40.0579 22.0973 40.4291 20.2961Z" fill="white"/>
</svg>
