<svg width="54" height="54" viewBox="0 0 54 54" fill="none" xmlns="http://www.w3.org/2000/svg">
<path fill-rule="evenodd" clip-rule="evenodd" d="M5.47656 48.7159L8.50731 37.6515C6.63756 34.4137 5.65431 30.7395 5.65544 26.9764C5.66106 15.2032 15.2416 5.625 27.0158 5.625C32.7297 5.62725 38.0914 7.85138 42.1246 11.8868C46.1566 15.9233 48.3773 21.2872 48.3751 26.9932C48.3706 38.7664 38.7878 48.3457 27.0158 48.3457H27.0068C23.4327 48.3446 19.9193 47.448 16.7997 45.7459L5.47656 48.7159Z" fill="black"/>
<path fill-rule="evenodd" clip-rule="evenodd" d="M5.47656 49.2784C5.32806 49.2784 5.18406 49.2199 5.07718 49.1119C4.93656 48.969 4.88143 48.7609 4.93431 48.5685L7.90318 37.728C6.06268 34.4587 5.09181 30.7463 5.09406 26.9775C5.09856 14.8927 14.9322 5.0625 27.0158 5.0625C32.8771 5.06475 38.3839 7.34738 42.5228 11.4896C46.6617 15.633 48.9398 21.1388 48.9376 26.9932C48.9331 39.0769 39.0983 48.9082 27.0158 48.9082C23.4282 48.9071 19.8788 48.0217 16.7288 46.3466L5.61943 49.2593C5.57218 49.2728 5.52493 49.2784 5.47656 49.2784Z" fill="black"/>
<path fill-rule="evenodd" clip-rule="evenodd" d="M27.0158 5.625C32.7297 5.62725 38.0914 7.85138 42.1245 11.8868C46.1565 15.9233 48.3773 21.2872 48.375 26.9932C48.3705 38.7664 38.7878 48.3457 27.0158 48.3457H27.0068C23.4327 48.3446 19.9193 47.448 16.7997 45.7459L5.47654 48.7159L8.50729 37.6515C6.63754 34.4137 5.65429 30.7395 5.65541 26.9764C5.66104 15.2032 15.2415 5.625 27.0158 5.625ZM27.0158 4.5C14.6228 4.5 4.53604 14.5822 4.53041 26.9764C4.52929 30.7642 5.48554 34.497 7.29904 37.8011L4.39091 48.42C4.28516 48.8081 4.39316 49.2221 4.67666 49.5079C4.89041 49.7239 5.17954 49.842 5.47654 49.842C5.57216 49.842 5.66779 49.8296 5.76229 49.8049L16.6602 46.9474C19.8417 48.5989 23.4079 49.4707 27.0068 49.4719C39.4088 49.4719 49.4955 39.3885 49.5012 26.9944C49.5034 20.988 47.1668 15.3405 42.9222 11.0925C38.6753 6.84337 33.0267 4.50225 27.0158 4.5Z" fill="black"/>
<path fill-rule="evenodd" clip-rule="evenodd" d="M39.573 14.436C36.2205 11.0812 31.7644 9.23281 27.0214 9.23169C17.2294 9.23169 9.26549 17.1922 9.26099 26.9775C9.25986 30.3311 10.1981 33.5959 11.9756 36.423L12.3986 37.0946L10.6042 43.6432L17.3239 41.8815L17.973 42.2662C20.6977 43.884 23.823 44.739 27.009 44.7401H27.0157C36.801 44.7401 44.7649 36.7785 44.7682 26.9921C44.7694 22.2502 42.9255 17.7907 39.573 14.436Z" fill="#020202"/>
<path fill-rule="evenodd" clip-rule="evenodd" d="M21.6765 18.0506C21.2771 17.1619 20.8564 17.1439 20.475 17.1281C20.1634 17.1146 19.8079 17.1157 19.4524 17.1157C19.0969 17.1157 18.5186 17.2496 18.0293 17.784C17.5399 18.3184 16.1606 19.6087 16.1606 22.2345C16.1606 24.8602 18.0731 27.3982 18.3398 27.7537C18.6064 28.1092 22.032 33.6701 27.4568 35.8099C31.9646 37.5874 32.8826 37.2341 33.8614 37.1452C34.8401 37.0564 37.0193 35.8549 37.4636 34.6084C37.908 33.3619 37.908 32.2942 37.7753 32.0715C37.6414 31.8487 37.2859 31.716 36.7526 31.4482C36.2194 31.1805 33.5948 29.8901 33.1054 29.7124C32.616 29.5346 32.2605 29.4457 31.9039 29.9801C31.5484 30.5134 30.5258 31.716 30.2141 32.0715C29.9025 32.4281 29.5909 32.4731 29.0576 32.2054C28.5244 31.9376 26.8054 31.3751 24.7658 29.5571C23.1795 28.143 22.1085 26.3959 21.7969 25.8615C21.4853 25.3282 21.7631 25.0391 22.0309 24.7725C22.2705 24.5329 22.5641 24.1492 22.8319 23.8376C23.0985 23.526 23.1874 23.3032 23.3651 22.9477C23.5429 22.5911 23.454 22.2795 23.3201 22.0129C23.1885 21.7451 22.1513 19.1059 21.6765 18.0506Z" fill="white"/>
</svg>
