<svg width="50" height="50" viewBox="0 0 50 50" fill="none" xmlns="http://www.w3.org/2000/svg">
<path fill-rule="evenodd" clip-rule="evenodd" d="M5.07086 45.1073L7.87711 34.8625C6.14586 31.8646 5.23545 28.4625 5.23649 24.9782C5.2417 14.0771 14.1125 5.20837 25.0146 5.20837C30.3052 5.21046 35.2698 7.26983 39.0042 11.0063C42.7375 14.7438 44.7938 19.7105 44.7917 24.9938C44.7875 35.8948 35.9146 44.7646 25.0146 44.7646H25.0063C21.6969 44.7636 18.4438 43.9334 15.5552 42.3573L5.07086 45.1073Z" fill="#F5764E"/>
<path fill-rule="evenodd" clip-rule="evenodd" d="M5.07085 45.6281C4.93335 45.6281 4.80002 45.574 4.70106 45.474C4.57085 45.3417 4.51981 45.149 4.56877 44.9708L7.31773 34.9333C5.61356 31.9063 4.7146 28.4688 4.71669 24.9792C4.72085 13.7896 13.8261 4.6875 25.0146 4.6875C30.4417 4.68958 35.5406 6.80313 39.3729 10.6385C43.2052 14.475 45.3146 19.5729 45.3125 24.9938C45.3084 36.1823 36.2021 45.2854 25.0146 45.2854C21.6927 45.2844 18.4063 44.4646 15.4896 42.9135L5.20315 45.6104C5.1594 45.6229 5.11565 45.6281 5.07085 45.6281Z" fill="#F5764E"/>
<path fill-rule="evenodd" clip-rule="evenodd" d="M25.0146 5.20829C30.3052 5.21038 35.2698 7.26975 39.0042 11.0062C42.7375 14.7437 44.7938 19.7104 44.7917 24.9937C44.7875 35.8948 35.9146 44.7645 25.0146 44.7645H25.0063C21.6969 44.7635 18.4438 43.9333 15.5552 42.3573L5.07084 45.1073L7.87709 34.8625C6.14584 31.8645 5.23543 28.4625 5.23647 24.9781C5.24168 14.077 14.1125 5.20829 25.0146 5.20829ZM25.0146 4.16663C13.5396 4.16663 4.20001 13.502 4.1948 24.9781C4.19376 28.4854 5.07918 31.9416 6.75834 35.001L4.06563 44.8333C3.96772 45.1927 4.06772 45.576 4.33022 45.8406C4.52813 46.0406 4.79584 46.15 5.07084 46.15C5.15938 46.15 5.24793 46.1385 5.33543 46.1156L15.4261 43.4698C18.3719 44.9989 21.674 45.8062 25.0063 45.8073C36.4896 45.8073 45.8292 36.4708 45.8344 24.9948C45.8365 19.4333 43.6729 14.2041 39.7427 10.2708C35.8104 6.33642 30.5802 4.16871 25.0146 4.16663Z" fill="#F5764E"/>
<path fill-rule="evenodd" clip-rule="evenodd" d="M36.6417 13.3668C33.5375 10.2605 29.4115 8.54902 25.0198 8.54797C15.9531 8.54797 8.57918 15.9189 8.57501 24.9793C8.57397 28.0845 9.44272 31.1074 11.0886 33.7251L11.4802 34.347L9.81875 40.4105L16.0406 38.7793L16.6417 39.1355C19.1646 40.6334 22.0583 41.4251 25.0083 41.4262H25.0146C34.075 41.4262 41.449 34.0543 41.4521 24.9928C41.4531 20.6022 39.7458 16.473 36.6417 13.3668Z" fill="#F5764E"/>
<path fill-rule="evenodd" clip-rule="evenodd" d="M20.0709 16.7134C19.7011 15.8905 19.3115 15.8738 18.9584 15.8593C18.6698 15.8468 18.3406 15.8478 18.0115 15.8478C17.6823 15.8478 17.1469 15.9718 16.6938 16.4666C16.2406 16.9613 14.9636 18.1561 14.9636 20.5874C14.9636 23.0186 16.7344 25.3686 16.9813 25.6978C17.2281 26.027 20.4 31.1759 25.4229 33.1572C29.5969 34.803 30.4469 34.4759 31.3531 34.3936C32.2594 34.3113 34.2771 33.1988 34.6886 32.0447C35.1 30.8905 35.1 29.902 34.9771 29.6957C34.8531 29.4895 34.524 29.3665 34.0302 29.1186C33.5365 28.8707 31.1063 27.6759 30.6531 27.5113C30.2 27.3468 29.8709 27.2645 29.5406 27.7593C29.2115 28.253 28.2646 29.3665 27.9761 29.6957C27.6875 30.0259 27.399 30.0676 26.9052 29.8197C26.4115 29.5718 24.8198 29.0509 22.9313 27.3676C21.4625 26.0582 20.4709 24.4405 20.1823 23.9457C19.8938 23.452 20.1511 23.1843 20.399 22.9374C20.6209 22.7155 20.8927 22.3603 21.1406 22.0718C21.3875 21.7832 21.4698 21.577 21.6344 21.2478C21.799 20.9176 21.7167 20.6291 21.5927 20.3822C21.4709 20.1343 20.5104 17.6905 20.0709 16.7134Z" fill="white"/>
</svg>
